<svg width="173" height="56" viewBox="0 0 173 56" fill="none" xmlns="http://www.w3.org/2000/svg">
<g clip-path="url(#clip0_3511_21710)">
<path d="M168.391 44.3281L165.367 35.4278H153.183L150.159 44.3281H146.486L157.028 14.1709H161.651L172.193 44.3281H168.391ZM159.361 17.5409H159.145L154.047 32.2306H164.46L159.361 17.5409Z" fill="white"/>
<path d="M126.263 25.9227L122.633 19.2259H122.504V44.3281H118.961V14.1709H123.152L134.169 32.5763L137.798 39.2731H137.928V14.1709H141.471V44.3281H137.28L126.263 25.9227Z" fill="white"/>
<path d="M99.6481 44.8455C97.6895 44.8455 95.918 44.5142 94.3339 43.8517C92.7785 43.1605 91.4391 42.1667 90.3158 40.8706C89.2213 39.5456 88.3716 37.9182 87.7667 35.9884C87.1618 34.0298 86.8594 31.7831 86.8594 29.2484C86.8594 26.7137 87.1618 24.4814 87.7667 22.5516C88.3716 20.6218 89.2213 18.9944 90.3158 17.6694C91.4391 16.3445 92.7785 15.3508 94.3339 14.6883C95.918 13.997 97.6895 13.6514 99.6481 13.6514C101.578 13.6514 103.335 13.997 104.919 14.6883C106.503 15.3508 107.843 16.3445 108.937 17.6694C110.061 18.9944 110.925 20.6218 111.529 22.5516C112.134 24.4814 112.437 26.7137 112.437 29.2484C112.437 31.7831 112.134 34.0298 111.529 35.9884C110.925 37.9182 110.061 39.5456 108.937 40.8706C107.843 42.1667 106.503 43.1605 104.919 43.8517C103.335 44.5142 101.578 44.8455 99.6481 44.8455ZM99.6481 41.6051C100.944 41.6051 102.14 41.3746 103.234 40.9138C104.329 40.4529 105.265 39.7905 106.042 38.9264C106.849 38.0623 107.468 37.0253 107.9 35.8156C108.332 34.6058 108.548 33.2521 108.548 31.7543V26.7425C108.548 25.2447 108.332 23.891 107.9 22.6812C107.468 21.4715 106.849 20.4346 106.042 19.5705C105.265 18.7064 104.329 18.0439 103.234 17.583C102.14 17.1222 100.944 16.8917 99.6481 16.8917C98.3519 16.8917 97.1566 17.1222 96.0621 17.583C94.9675 18.0439 94.017 18.7064 93.2105 19.5705C92.4328 20.4346 91.828 21.4715 91.3959 22.6812C90.9639 23.891 90.7478 25.2447 90.7478 26.7425V31.7543C90.7478 33.2521 90.9639 34.6058 91.3959 35.8156C91.828 37.0253 92.4328 38.0623 93.2105 38.9264C94.017 39.7905 94.9675 40.4529 96.0621 40.9138C97.1566 41.3746 98.3519 41.6051 99.6481 41.6051Z" fill="white"/>
<path d="M80.2077 44.3281L77.1834 35.4278H64.9995L61.9752 44.3281H58.3027L68.8448 14.1709H73.4677L84.0098 44.3281H80.2077ZM71.1779 17.5409H70.9618L65.8636 32.2306H76.2761L71.1779 17.5409Z" fill="white"/>
<path fill-rule="evenodd" clip-rule="evenodd" d="M48.881 56L48.8753 0L0.347656 27.9949L16.3962 37.2554L32.7669 27.7952L32.7549 46.6947L48.881 56Z" fill="white"/>
</g>
<defs>
<clipPath id="clip0_3511_21710">
<rect width="172.118" height="56" fill="white" transform="translate(0.238281)"/>
</clipPath>
</defs>
</svg>
