<svg width="183" height="72" viewBox="0 0 183 72" fill="none" xmlns="http://www.w3.org/2000/svg">
<g clip-path="url(#clip0_1101_50123)">
<path d="M52.4644 58.7342C52.4644 58.1358 51.9828 57.6431 51.3733 57.6431H46.1433C45.5449 57.6431 45.0522 58.1246 45.0522 58.7342C45.0522 59.3437 45.5338 59.8253 46.1433 59.8253H47.5517V65.5117C47.5406 65.559 47.5406 65.6174 47.5406 65.6648C47.5406 65.7121 47.5406 65.7705 47.5517 65.8178C47.6213 66.4163 48.139 66.8839 48.7597 66.8839C49.4388 66.8839 49.9788 66.3328 49.9788 65.6648V59.8253H51.3733C51.9828 59.8253 52.4644 59.3326 52.4644 58.7342Z" fill="white"/>
<path d="M64.4832 60.599H60.0159L60.5447 61.807H61.9169V66.1797C61.9169 66.5665 62.2342 66.8838 62.6211 66.8838C63.008 66.8838 63.3253 66.5665 63.3253 66.1797V61.807H64.4971C64.8367 61.807 65.1066 61.537 65.1066 61.1974C65.0955 60.8801 64.8144 60.599 64.486 60.599H64.4832Z" fill="white"/>
<path d="M70.7096 60.599C70.3227 60.599 70.0054 60.9163 70.0054 61.3032V63.2154H67.5087V61.2921C67.5087 60.9052 67.1914 60.5879 66.8045 60.5879C66.4176 60.5879 66.1003 60.9052 66.1003 61.2921V66.1713C66.1003 66.5582 66.4176 66.8755 66.8045 66.8755C67.1914 66.8755 67.5087 66.5582 67.5087 66.1713V64.4011H70.0054V66.1602C70.0054 66.5471 70.3227 66.8644 70.7096 66.8644C71.0965 66.8644 71.4138 66.5471 71.4138 66.1602V61.306C71.4138 60.9191 71.0965 60.6018 70.7096 60.6018V60.599Z" fill="white"/>
<path d="M46.5055 65.2055L46.4943 65.1832L43.7276 58.7815C43.7054 58.7008 43.6692 58.6284 43.633 58.5477C43.3519 58.0077 42.7897 57.6459 42.1439 57.6459C41.4982 57.6459 40.9137 58.0216 40.6437 58.5727C40.6214 58.6312 40.5852 58.6896 40.5741 58.7481L37.8408 65.0802L37.7824 65.2222V65.2333C37.7239 65.3753 37.6877 65.5256 37.6877 65.6787C37.6877 66.3355 38.2277 66.8755 38.8846 66.8755C39.3299 66.8755 39.7168 66.6306 39.9172 66.2771C39.9284 66.2548 39.9395 66.2298 39.9645 66.1964L40.0119 66.1017L40.4934 64.9884H43.8473L44.34 66.1379L44.3511 66.1602L44.3734 66.2075C44.5738 66.6055 44.9718 66.8755 45.4394 66.8755C46.0963 66.8755 46.6363 66.3355 46.6363 65.6787C46.6363 65.5145 46.6001 65.3614 46.5416 65.2222L46.5055 65.2111V65.2055ZM41.4035 62.8007L42.1411 61.1L42.8676 62.8007H41.4008H41.4035Z" fill="white"/>
<path d="M59.9324 65.2055L59.9212 65.1832L57.1546 58.7815C57.1323 58.7008 57.0961 58.6284 57.0599 58.5477C56.7788 58.0077 56.2166 57.6459 55.5708 57.6459C54.9251 57.6459 54.3406 58.0216 54.0706 58.5727C54.0483 58.6312 54.0121 58.6896 53.9899 58.7481L51.2566 65.0802L51.1982 65.2222V65.2333C51.1397 65.3753 51.1035 65.5256 51.1035 65.6787C51.1035 66.3355 51.6435 66.8755 52.3004 66.8755C52.7457 66.8755 53.1326 66.6306 53.333 66.2771C53.3441 66.2548 53.3553 66.2298 53.3803 66.1964L53.4276 66.1017L53.9091 64.9884H57.2631L57.7558 66.1379L57.7669 66.1602L57.7892 66.2075C57.9896 66.6055 58.3876 66.8755 58.8552 66.8755C59.5121 66.8755 60.052 66.3355 60.052 65.6787C60.052 65.5145 60.0159 65.3614 59.9574 65.2222L59.9351 65.2111L59.9324 65.2055ZM54.8304 62.8007L55.568 61.1L56.2945 62.8007H54.8277H54.8304Z" fill="white"/>
<path d="M36.4434 58.8622C35.5638 58.0661 34.2974 57.6542 32.6914 57.6542H29.5239C28.9255 57.6542 28.4329 58.1469 28.4329 58.7453V60.4209C28.4329 61.0193 28.9255 61.512 29.5239 61.512C30.1224 61.512 30.615 61.0193 30.615 60.4209V59.8224H32.6441C33.571 59.8224 34.2501 60.034 34.6843 60.4571C35.1185 60.8662 35.33 61.4786 35.33 62.2746C35.33 63.0706 35.1185 63.6691 34.6843 64.0699C34.2501 64.479 33.6183 64.6794 32.7833 64.6794H30.9295V64.6906C30.32 64.6906 29.8273 65.1832 29.8273 65.7928C29.8273 66.4023 30.32 66.895 30.9295 66.895H32.5829C34.3058 66.895 35.6195 66.4719 36.4768 65.6397C37.3341 64.8075 37.7655 63.6579 37.7655 62.2384C37.7766 60.7966 37.3313 59.6694 36.4406 58.8622H36.4434Z" fill="white"/>
<path d="M99.6313 59.1461C101.001 59.1461 102.122 59.5358 103.002 60.3513C103.881 61.1668 104.321 62.2134 104.321 63.516C104.321 64.8186 103.881 65.8039 103.002 66.625C102.122 67.4433 100.998 67.7829 99.6313 67.7829H96.667V59.1489H99.6313V59.1461ZM98.7295 66.2771H99.6313C100.43 66.2771 101.056 66.0266 101.513 65.5256C101.969 65.0246 102.198 64.351 102.198 63.5076C102.198 62.6643 101.969 61.9462 101.513 61.4424C101.056 60.9414 100.43 60.6435 99.6313 60.6435H98.7295V66.2743V66.2771Z" fill="white"/>
<path d="M105.557 66.9952C104.953 66.3272 104.653 65.4699 104.653 64.4234C104.653 63.3768 104.953 62.5195 105.557 61.846C106.161 61.1724 106.918 60.8356 107.784 60.8356C108.65 60.8356 109.429 61.1668 109.805 61.8265V61.0193H111.87V67.7773H109.805V66.895C109.242 67.6298 108.599 67.9972 107.753 67.9972C106.907 67.9972 106.158 67.6632 105.557 66.9952ZM109.306 65.6898C109.607 65.3892 109.757 64.9633 109.757 64.4094C109.757 63.8556 109.607 63.4325 109.306 63.1374C109.006 62.8396 108.658 62.6921 108.268 62.6921C107.879 62.6921 107.531 62.8424 107.23 63.143C106.929 63.4436 106.779 63.8695 106.779 64.4234C106.779 64.9773 106.929 65.4003 107.23 65.6954C107.531 65.9932 107.879 66.1407 108.268 66.1407C108.658 66.1407 109.006 65.9904 109.306 65.6898Z" fill="white"/>
<path d="M116.087 66.0906H116.938V67.7801H115.769C115.004 67.7801 114.417 67.6743 113.996 67.3264C113.576 66.9785 113.373 66.4496 113.373 65.6063V62.7144H112.811V61.0249H113.373V59.1489H115.438V61.0249H116.938V62.7144H115.438V65.6063C115.438 65.9319 115.666 66.0906 116.089 66.0906H116.087Z" fill="white"/>
<path d="M118.174 66.9952C117.57 66.3272 117.27 65.4699 117.27 64.4234C117.27 63.3768 117.57 62.5195 118.174 61.846C118.778 61.1724 119.513 60.8356 120.381 60.8356C121.25 60.8356 121.818 61.1668 122.38 61.8265V61.0193H124.445V67.7773H122.38V66.895C121.818 67.6298 121.197 67.9972 120.351 67.9972C119.505 67.9972 118.778 67.6632 118.174 66.9952ZM121.923 65.6898C122.224 65.3892 122.374 64.9633 122.374 64.4094C122.374 63.8556 122.224 63.4325 121.923 63.1374C121.623 62.8396 121.275 62.6921 120.885 62.6921C120.495 62.6921 120.148 62.8424 119.847 63.143C119.546 63.4436 119.396 63.8695 119.396 64.4234C119.396 64.9773 119.546 65.4003 119.847 65.6954C120.148 65.9932 120.495 66.1407 120.885 66.1407C121.275 66.1407 121.623 65.9904 121.923 65.6898Z" fill="white"/>
<path d="M127.821 64.4011V67.7801H125.945V59.1461H129.196C130.19 59.1461 130.964 59.391 131.518 59.9171C132.071 60.4431 132.347 61.0694 132.347 61.8153C132.347 62.3247 132.197 62.8173 131.896 63.3017C131.596 63.786 131.103 64.0615 130.418 64.2619L132.52 67.7801H130.076L128.147 64.4011H127.821ZM127.821 60.6463V62.7116H129.196C129.514 62.7116 129.764 62.6893 129.948 62.4973C130.131 62.3052 130.223 62.0881 130.223 61.7736C130.223 61.4591 130.129 61.1752 129.942 60.9748C129.756 60.7744 129.505 60.6463 129.196 60.6463H127.821Z" fill="white"/>
<path d="M134.028 67.0091C133.341 66.3494 132.996 65.4782 132.996 64.4011C132.996 63.3239 133.338 62.4583 134.023 61.8126C134.707 61.164 135.554 60.8412 136.564 60.8412C137.574 60.8412 138.418 61.164 139.1 61.8126C139.779 62.4611 140.118 63.3239 140.118 64.4011C140.118 65.4782 139.781 66.3494 139.105 67.0091C138.429 67.6688 137.585 68 136.578 68C135.57 68 134.719 67.6688 134.031 67.0091H134.028ZM137.577 65.7176C137.853 65.417 137.992 64.9828 137.992 64.4122C137.992 63.8416 137.85 63.4102 137.563 63.1152C137.279 62.8173 136.94 62.6698 136.55 62.6698C136.16 62.6698 135.824 62.8173 135.542 63.1152C135.261 63.413 135.122 63.8444 135.122 64.4122C135.122 64.98 135.267 65.4142 135.556 65.7176C135.846 66.0182 136.185 66.1685 136.575 66.1685C136.965 66.1685 137.299 66.0182 137.577 65.7176Z" fill="white"/>
<path d="M141.418 67.0202C140.786 66.3689 140.472 65.4977 140.472 64.4122C140.472 63.3267 140.786 62.4583 141.418 61.8098C142.05 61.1612 142.865 60.8384 143.867 60.8384C144.697 60.8384 145.401 61.0443 145.98 61.4674C146.559 61.8905 146.94 62.5251 147.129 63.2738H144.869C144.675 62.7116 144.354 62.6503 143.909 62.6503C143.464 62.6503 143.135 62.8146 142.921 63.1347C142.704 63.4575 142.598 63.8806 142.598 64.4094C142.598 64.9383 142.707 65.3614 142.921 65.6842C143.135 66.0071 143.453 66.1685 143.867 66.1685C144.129 66.1685 144.332 66.1156 144.477 66.0238C144.624 65.9319 144.752 65.7148 144.867 65.5284H147.127C146.94 66.2799 146.553 66.8866 145.966 67.3292C145.379 67.7717 144.68 67.9972 143.865 67.9972C142.863 67.9972 142.047 67.6743 141.415 67.023L141.418 67.0202Z" fill="white"/>
<path d="M149.782 67.7801H147.906V58.7704H149.782V63.8361L152.017 61.0221H154.825L151.906 64.4763L154.825 67.7801H152.053L149.782 65.1164V67.7801Z" fill="white"/>
<path d="M157.289 61.0221H155.413V67.7801H157.289V61.0221Z" fill="white"/>
<path d="M161.628 68C160.634 68 159.819 67.6715 159.184 67.0147C158.549 66.3578 158.232 65.4866 158.232 64.4011C158.232 63.3156 158.547 62.4499 159.179 61.8042C159.81 61.1612 160.626 60.8384 161.628 60.8384C162.63 60.8384 163.459 61.1557 164.119 61.7903C164.779 62.4249 165.107 63.3267 165.107 64.454C165.107 64.6961 165.09 64.9605 165.057 65.1498H160.367C160.409 65.3363 160.542 65.6954 160.771 65.8902C160.999 66.0878 161.244 66.1769 161.508 66.1769C161.773 66.1769 161.97 66.1463 162.101 66.0906C162.232 66.0349 162.326 66.0099 162.388 65.9542C162.449 65.8985 162.527 65.7121 162.627 65.7121H164.887C164.692 66.2743 164.3 66.9507 163.715 67.3821C163.128 67.8135 162.432 67.9972 161.628 67.9972V68ZM162.519 62.9148C162.274 62.7088 161.984 62.6392 161.65 62.6392C161.316 62.6392 161.035 62.6949 160.807 62.9009C160.579 63.1068 160.437 63.4631 160.378 63.6496H162.93C162.897 63.4631 162.761 63.1207 162.516 62.9148H162.519Z" fill="white"/>
<path d="M158.497 57.952C158.483 57.8964 158.461 57.8435 158.422 57.8045C158.383 57.7655 158.33 57.7349 158.274 57.7349C158.191 57.7349 158.124 57.7934 158.057 57.8351C157.846 57.9743 157.57 58.0105 157.328 57.9353C157.08 57.8574 156.885 57.6125 156.782 57.3759C156.707 57.2005 156.649 56.8943 156.412 56.8943H156.329C156.092 56.8943 156.034 57.2005 155.958 57.3759C155.855 57.6125 155.663 57.8323 155.413 57.9103C155.171 57.9854 154.898 57.9632 154.684 57.824C154.617 57.7795 154.55 57.7294 154.467 57.7294C154.411 57.7294 154.358 57.76 154.319 57.8017C154.28 57.8435 154.258 57.8964 154.244 57.952C154.171 58.261 154.394 58.6423 154.531 58.9067C154.689 59.2101 154.876 59.4968 155.087 59.7668C155.391 60.1565 155.836 60.6547 156.37 60.6519C156.902 60.6547 157.347 60.1565 157.653 59.7668C157.865 59.4968 158.051 59.2101 158.21 58.9067C158.347 58.6423 158.569 58.2638 158.497 57.9548V57.952Z" fill="white"/>
<path d="M99.6368 31.3792C99.5673 31.1899 99.4225 31.0758 99.2555 31.0703C99.0579 31.0703 98.8798 31.2039 98.7768 31.4349C97.3489 34.4409 96.038 36.0581 95.0888 36.0135C94.688 35.9801 94.3401 35.3372 94.1146 34.2071C94.02 33.7117 93.9254 33.0659 93.8168 32.3228C93.7333 31.7466 93.6387 31.0981 93.5301 30.4496L93.6665 30.3382C95.2308 29.0746 96.5807 27.9835 97.3378 27.1234C98.5792 25.7011 99.2973 24.6379 99.2973 23.4243C99.2973 23.0263 99.1386 22.8872 99.0078 22.8426C98.7879 22.7675 98.5235 22.9094 98.2674 23.2434C97.0483 24.8105 95.4423 26.3998 93.2268 28.2229C93.0987 27.2515 92.9373 26.2884 92.7703 25.4813C92.478 24.0478 92.0355 23.107 90.7468 22.8593C88.9348 22.5337 86.7693 24.3345 86.0457 26.1632C85.8091 26.7755 85.6254 27.63 85.8314 28.2062C85.9009 28.3927 86.0512 28.5096 86.2294 28.5151C86.4381 28.5151 86.6274 28.3787 86.7304 28.1449C87.7602 25.8459 89.0768 24.6629 89.4247 24.5989C89.5249 24.7381 89.8867 25.5592 90.5965 30.3716C89.1937 31.51 88.136 32.3896 87.3232 33.2691C86.1013 34.5884 85.2663 35.7408 85.1494 37.0573C85.1049 37.4303 85.2802 37.5694 85.3916 37.6167C85.45 37.6418 85.514 37.6557 85.5808 37.6557C85.823 37.6557 86.1041 37.4971 86.2823 37.2967C87.468 35.8131 88.9821 34.299 90.9082 32.6679C90.9277 32.7987 90.9416 32.9212 90.9555 33.0298C90.9722 33.1717 90.9889 33.2942 91.0028 33.3777C91.4343 36.3587 92.4418 37.575 94.4793 37.575C96.2133 37.575 98.1589 36.0386 99.3195 33.7534C99.8595 32.7124 99.8317 31.819 99.648 31.3736L99.6368 31.3792Z" fill="white"/>
<path d="M50.9727 8.53609C50.9727 8.53609 50.9588 8.53609 50.9504 8.53609C50.8085 8.53052 50.6637 8.52774 50.519 8.52217C50.3241 8.51939 50.1265 8.51382 49.9289 8.51382C49.9233 8.51382 49.915 8.51382 49.9094 8.51382C50.2657 8.51382 50.6192 8.52217 50.9727 8.53331V8.53609Z" fill="white"/>
<path d="M37.2699 11.4336C37.2699 11.4336 37.281 11.4252 37.2866 11.4225C37.1251 11.4948 36.9665 11.5755 36.8106 11.6563C36.8022 11.6618 36.7967 11.6674 36.7883 11.673C36.947 11.5922 37.1084 11.5115 37.2699 11.4336Z" fill="white"/>
<path d="M78.7005 34.9698C78.7673 35.7686 78.8035 36.5785 78.8035 37.3941C78.8035 38.9277 78.6838 40.4307 78.4556 41.8948C78.4695 41.8057 78.4834 41.7194 78.4973 41.6304C78.5029 41.583 78.5112 41.5357 78.5168 41.4884C78.5391 41.3242 78.5613 41.16 78.5836 40.9958C78.6142 40.7425 78.6448 40.4892 78.6699 40.2359C78.681 40.1162 78.6949 39.9965 78.7061 39.8741C78.72 39.7182 78.7311 39.5595 78.7423 39.4009C78.7562 39.1949 78.7701 38.9862 78.7784 38.7774C78.784 38.6549 78.7896 38.5353 78.7951 38.4128C78.8063 38.0732 78.8146 37.7336 78.8146 37.3913C78.8146 37.1491 78.8118 36.9098 78.8063 36.6704C78.8035 36.5201 78.7951 36.3698 78.7896 36.2223L78.7812 36.0024C78.7645 35.6545 78.7367 35.3093 78.7033 34.967L78.7005 34.9698Z" fill="white"/>
<path d="M26.2756 53.9718H26.2784C26.2784 53.9718 26.2728 53.9635 26.27 53.9579C26.27 53.9635 26.2728 53.9662 26.2756 53.9718Z" fill="white"/>
<path d="M78.4388 42.0005C78.3915 42.3067 78.3358 42.6073 78.2773 42.9107C78.3358 42.6101 78.3887 42.3067 78.4388 42.0005Z" fill="white"/>
<path d="M49.9343 8.51663C49.9343 8.51663 49.9315 8.51663 49.9287 8.51663C50.1263 8.51663 50.3212 8.51942 50.5188 8.52498C50.3239 8.51942 50.1291 8.51663 49.9343 8.51663Z" fill="white"/>
<path d="M71.7893 15.5279C65.947 9.68565 58.1815 6.46808 49.9232 6.46808C41.665 6.46808 33.9021 9.68565 28.0599 15.5279C22.2176 21.3702 19 29.1358 19 37.3941C19 43.3143 20.6645 49.0146 23.8208 53.9718H26.2757C25.3962 52.7443 24.6391 51.4556 23.9627 50.1029C23.9544 50.0667 23.9488 50.0361 23.9433 50.0027C22.9774 48.0182 22.2343 45.9084 21.7444 43.7067C21.7277 43.6288 21.711 43.5509 21.6943 43.4729C21.647 43.2503 21.5997 43.0248 21.5579 42.7994C21.5078 42.5433 21.4633 42.2872 21.4215 42.0284C21.4132 41.9838 21.4076 41.9393 21.3993 41.8976C21.1627 40.414 21.0374 38.8971 21.0374 37.3523C21.0374 36.4589 21.0764 35.5849 21.1738 34.7109C21.3158 33.1745 21.5746 31.6715 21.9504 30.213L21.9392 30.2074C22.7993 26.77 24.294 23.5774 26.2785 20.7523L26.3147 20.769C27.4726 19.1268 28.7975 17.6127 30.2671 16.246L30.2504 16.2266C31.3359 15.2023 32.5021 14.281 33.7491 13.4432C34.4644 12.9533 35.2215 12.4802 35.9785 12.0933C36.2541 11.9485 36.5296 11.7982 36.8108 11.6507C36.9639 11.5449 37.1225 11.4475 37.2867 11.3557C37.8406 11.0885 38.3917 10.8435 38.9651 10.6181C39.0402 10.5986 39.1182 10.5791 39.1961 10.5596C39.1265 10.5875 39.0542 10.6125 38.9874 10.6403C39.043 10.6236 39.0987 10.6069 39.1516 10.593C42.4554 9.26258 46.0627 8.52499 49.8397 8.51385C49.8564 8.51385 49.8759 8.51385 49.8926 8.51385C49.8954 8.51385 49.9009 8.51385 49.9037 8.51385C49.9093 8.51385 49.9176 8.51385 49.9232 8.51385C49.9232 8.51385 49.926 8.51385 49.9288 8.51385C49.9288 8.51385 49.9316 8.51385 49.9343 8.51385C50.1292 8.51385 50.324 8.51664 50.5188 8.5222C50.6636 8.52499 50.8055 8.53055 50.9503 8.53612C50.9642 8.53612 50.9781 8.53612 50.992 8.53612C50.9865 8.53612 50.9781 8.53612 50.9725 8.53612C58.2037 8.79497 64.7585 11.7119 69.6879 16.3435L69.6016 16.2906L66.5121 19.6891V24.3957L73.5317 20.7941C75.5163 23.6192 77.0109 26.8117 77.8905 30.2492L71.4442 33.5864C71.9146 34.1598 72.3655 34.7332 72.7746 35.3455L78.6698 34.6497C78.681 34.7554 78.6893 34.8612 78.7004 34.967C78.7338 35.3093 78.7617 35.6545 78.7784 36.0024L78.7867 36.2223C78.7923 36.3726 78.8006 36.5201 78.8034 36.6704C78.809 36.9098 78.8118 37.1519 78.8118 37.3913C78.8118 37.7336 78.8034 38.0732 78.7923 38.4128C78.7867 38.5353 78.7812 38.6577 78.7756 38.7774C78.7645 38.9862 78.7533 39.1921 78.7394 39.4009C78.7283 39.5595 78.7171 39.7154 78.7032 39.8741C78.6921 39.9937 78.6782 40.1162 78.667 40.2359C78.642 40.4892 78.6114 40.7425 78.5807 40.9958C78.5613 41.16 78.539 41.3242 78.514 41.4884C78.5084 41.5357 78.5 41.583 78.4945 41.6304C77.8292 46.1812 76.1147 50.3813 73.5985 53.969H76.0451C79.1903 49.0202 80.8464 43.3199 80.8464 37.3913C80.8464 29.133 77.6288 21.3674 71.7865 15.5252L71.7893 15.5279Z" fill="white"/>
<path d="M26.3175 20.7774L33.3956 24.3985V19.6918L30.2643 16.2572C28.7975 17.621 27.4726 19.138 26.3147 20.7801L26.3175 20.7774Z" fill="white"/>
<path d="M21.1905 34.633L26.9771 35.3232C26.9911 35.3037 27.0022 35.2843 27.0133 35.2676C27.4169 34.6608 27.8623 34.0735 28.3466 33.5085L21.956 30.2213C21.5885 31.652 21.3325 33.1271 21.1877 34.633H21.1905Z" fill="white"/>
<path d="M78.2774 42.9107C78.2496 43.0582 78.2162 43.2085 78.1855 43.356C78.2162 43.2085 78.2468 43.061 78.2774 42.9107Z" fill="white"/>
<path d="M75.0458 51.6171C74.5838 52.4215 74.08 53.2064 73.54 53.9718H73.5901C75.7278 50.9184 77.2892 47.4253 78.1215 43.6483C77.6121 45.9279 76.8355 48.11 75.8252 50.1641C75.5802 50.654 75.313 51.1467 75.0486 51.6171H75.0458Z" fill="white"/>
<path d="M78.5836 40.9985C78.5642 41.1628 78.5419 41.327 78.5168 41.4912C78.5391 41.327 78.5614 41.1628 78.5836 40.9985Z" fill="white"/>
<path d="M78.4527 41.8948C78.4472 41.9282 78.4416 41.9644 78.436 41.9978C78.3859 42.3012 78.333 42.6073 78.2746 42.9079C78.2468 43.0582 78.2134 43.2057 78.1827 43.3533C78.1633 43.4507 78.141 43.5509 78.1187 43.6483C77.2893 47.4253 75.7278 50.9185 73.5874 53.9718H73.5985C76.1119 50.3841 77.8265 46.184 78.4945 41.6331C78.4806 41.7222 78.4666 41.8085 78.4527 41.8976V41.8948Z" fill="white"/>
<path d="M78.5168 41.4911C78.5112 41.5385 78.5029 41.5858 78.4973 41.6331C78.5057 41.5858 78.5112 41.5385 78.5168 41.4911Z" fill="white"/>
<path d="M65.5489 29.6173V18.1972C65.5489 17.1952 65.3429 16.2516 64.956 15.3943C63.8928 12.9589 61.4574 11.261 58.6322 11.261C55.8071 11.261 53.3939 12.9589 52.3084 15.3943C51.941 16.2544 51.7156 17.1952 51.7156 18.1972V24.2761C54.4377 24.418 57.0986 24.9302 59.637 25.7707C59.882 25.8514 60.0267 26.1187 59.9432 26.3859C59.8625 26.6308 59.5953 26.7755 59.3281 26.692C56.3387 25.7095 53.1685 25.1974 49.9147 25.1974C46.661 25.1974 43.4267 25.7095 40.3984 26.731C40.3372 26.7505 40.2954 26.7505 40.2342 26.7505C40.0282 26.7505 39.825 26.628 39.7638 26.422C39.6831 26.1548 39.8055 25.8682 40.07 25.7874C42.6696 24.9079 45.3918 24.3957 48.1946 24.2538V18.1332C48.1946 17.1312 47.9886 16.1876 47.6017 15.3303C46.5385 12.8949 44.1031 11.197 41.2779 11.197C38.4528 11.197 36.0396 12.8949 34.9541 15.3303C34.5645 16.1904 34.3613 17.1312 34.3613 18.1332V29.4921L34.3418 29.5116C28.3659 33.3805 24.5193 39.4371 24.5193 46.2118C24.5193 48.8504 25.1233 51.4696 26.2533 53.9106C26.2672 53.9301 26.2812 53.9495 26.2923 53.969H73.5288C74.6616 51.5252 75.2712 48.9005 75.2712 46.2535C75.2712 39.5206 71.4636 33.5029 65.5489 29.6146V29.6173ZM31.127 48.3438C28.9782 48.3438 27.2386 47.1971 27.2386 45.7859C27.2386 44.3748 28.9782 43.228 31.127 43.228C33.2758 43.228 35.0154 44.3748 35.0154 45.7859C35.0154 47.1971 33.2758 48.3438 31.127 48.3438ZM39.7443 42.9803C37.8405 42.9803 36.3068 41.956 36.3068 40.7091C36.3068 39.4621 37.8405 38.4378 39.7443 38.4378C41.6481 38.4378 43.1818 39.4398 43.1818 40.7091C43.1818 41.9783 41.6481 42.9803 39.7443 42.9803ZM51.3899 47.339C50.8165 47.339 50.3044 47.1136 49.9175 46.7462C49.5501 47.1136 49.0157 47.339 48.4451 47.339C47.2594 47.339 46.3158 46.376 46.3158 45.2098C46.3158 44.8618 46.6025 44.5752 46.9504 44.5752C47.2984 44.5752 47.585 44.8618 47.585 45.2098C47.585 45.6802 47.9525 46.0476 48.4228 46.0476C48.8932 46.0476 49.2606 45.6802 49.2606 45.2098C49.2606 44.8618 49.5473 44.5752 49.8952 44.5752C50.2432 44.5752 50.5299 44.8618 50.5299 45.2098C50.5299 45.6802 50.8973 46.0476 51.3676 46.0476C51.838 46.0476 52.2054 45.6802 52.2054 45.2098C52.2054 44.8618 52.4921 44.5752 52.84 44.5752C53.188 44.5752 53.4747 44.8813 53.5164 45.2098C53.5164 46.3955 52.5534 47.339 51.3871 47.339H51.3899ZM60.1074 42.9803C58.2036 42.9803 56.67 41.956 56.67 40.7091C56.67 39.4621 58.2036 38.4378 60.1074 38.4378C62.0112 38.4378 63.5449 39.4621 63.5449 40.7091C63.5449 41.956 62.0112 42.9803 60.1074 42.9803ZM68.7247 48.3438C66.576 48.3438 64.8364 47.1971 64.8364 45.7859C64.8364 44.3748 66.576 43.228 68.7247 43.228C70.8735 43.228 72.6131 44.3748 72.6131 45.7859C72.6131 47.1971 70.8735 48.3438 68.7247 48.3438Z" fill="white"/>
<path d="M26.3175 20.7774H26.3091C24.3218 23.5914 22.8244 26.7811 21.9448 30.2158L21.9532 30.2213C22.8327 26.7867 24.3274 23.5969 26.3147 20.7774H26.3175Z" fill="white"/>
<path d="M26.2758 20.7551C24.2913 23.5802 22.7966 26.7727 21.9365 30.2102L21.9477 30.2158C22.8272 26.7811 24.3247 23.5913 26.312 20.7718L26.2758 20.7551Z" fill="white"/>
<path d="M21.0569 37.3941C21.0569 36.4616 21.1015 35.5403 21.1905 34.633H21.1822C21.1794 34.658 21.1766 34.6858 21.1738 34.7137C21.0931 35.596 21.0486 36.4895 21.0486 37.3941C21.0486 38.9277 21.1683 40.4307 21.3993 41.9003C21.4076 41.9449 21.4132 41.9894 21.4216 42.0312C21.4633 42.29 21.5106 42.5461 21.5579 42.8021C21.6025 43.0276 21.647 43.2503 21.6943 43.4757C21.711 43.5537 21.7277 43.6316 21.7444 43.7095C22.0144 44.9008 22.354 46.0643 22.7659 47.1943C21.6609 44.1326 21.0569 40.8343 21.0569 37.3968V37.3941Z" fill="white"/>
<path d="M21.1711 34.7137C21.0764 35.5877 21.0347 36.4616 21.0347 37.3551C21.0347 38.8999 21.1599 40.4196 21.3965 41.9003C21.1655 40.4307 21.0458 38.9277 21.0458 37.3941C21.0458 36.4895 21.0903 35.596 21.1711 34.7137Z" fill="white"/>
<path d="M23.921 49.9303C23.882 49.8524 23.8459 49.7717 23.8069 49.691C23.8459 49.7745 23.882 49.8552 23.921 49.9387C23.921 49.9359 23.921 49.9331 23.921 49.9303Z" fill="white"/>
<path d="M36.7606 11.6925C36.7606 11.6925 36.7773 11.6813 36.7857 11.673C34.4003 12.8949 32.207 14.4396 30.2615 16.2488L30.267 16.2544C32.2043 14.4508 34.3864 12.9116 36.7606 11.6897V11.6925Z" fill="white"/>
<path d="M36.8106 11.6562C36.5295 11.801 36.254 11.9541 35.9784 12.0988C35.2213 12.4885 34.4643 12.9589 33.7489 13.4487C32.4992 14.2865 31.333 15.2078 30.2502 16.2321L30.2669 16.2516C32.2125 14.4424 34.4058 12.8976 36.7912 11.6757C36.7995 11.6702 36.8051 11.6646 36.8134 11.659L36.8106 11.6562Z" fill="white"/>
<path d="M37.231 11.4587C37.8711 11.1441 38.5224 10.8547 39.1877 10.5875C39.1765 10.5902 39.1626 10.5958 39.1515 10.5986C38.5113 10.8547 37.885 11.1358 37.2699 11.4364C37.256 11.4447 37.2449 11.4531 37.231 11.4614V11.4587Z" fill="white"/>
<path d="M37.27 11.4336C37.8852 11.133 38.5142 10.8547 39.1516 10.5958C39.0959 10.6125 39.0403 10.6264 38.9874 10.6431C39.057 10.6153 39.1266 10.5902 39.1961 10.5624C39.1182 10.5819 39.0431 10.6014 38.9651 10.6209C38.3917 10.8463 37.8406 11.0912 37.2867 11.3585C37.1225 11.4503 36.9639 11.5505 36.8108 11.6535C36.9667 11.5728 37.1253 11.4921 37.2867 11.4197C37.2812 11.4225 37.2756 11.428 37.27 11.4308V11.4336Z" fill="white"/>
<path d="M26.2506 53.9133C25.3794 52.6664 24.6084 51.3471 23.9404 49.9693C23.9404 49.9804 23.946 49.9916 23.946 50.0027C24.6196 51.386 25.3961 52.7081 26.2701 53.9579C26.2645 53.9439 26.2562 53.9272 26.2506 53.9133Z" fill="white"/>
<path d="M23.946 50.0027C23.9516 50.0333 23.9544 50.0667 23.9655 50.1029C24.6419 51.4529 25.399 52.7443 26.2785 53.9718C26.2785 53.9662 26.2757 53.9634 26.2729 53.9579C25.3962 52.7082 24.6196 51.386 23.9488 50.0027H23.946Z" fill="white"/>
<path d="M73.5288 53.9718C73.5288 53.9718 73.5176 53.9996 73.5093 54.0136C73.5176 53.9996 73.5288 53.9857 73.5371 53.9718H73.526H73.5288Z" fill="white"/>
<path d="M26.2783 53.9718C26.2783 53.9718 26.2978 53.9996 26.3062 54.0136H26.3173C26.3173 54.0136 26.2978 53.9857 26.2895 53.9718H26.2783Z" fill="white"/>
<path d="M73.54 53.9718C73.54 53.9718 73.5206 53.9996 73.5122 54.0136H73.5623C73.5623 54.0136 73.5818 53.9857 73.5901 53.9718H73.54Z" fill="white"/>
<path d="M73.5623 54.0136H73.5734C73.5734 54.0136 73.5929 53.9857 73.6012 53.9718H73.5901C73.5901 53.9718 73.5706 53.9996 73.5623 54.0136Z" fill="white"/>
<path d="M26.2896 53.9718C26.2896 53.9718 26.309 53.9996 26.3174 54.0136H73.5122C73.5122 54.0136 73.5233 53.9857 73.5316 53.9718H26.2896Z" fill="white"/>
<path d="M116.448 36.0525C115.627 35.9662 114.884 35.7658 114.291 35.4541C113.328 34.9447 112.78 34.2433 112.527 33.194C112.886 33.823 113.57 34.3741 114.567 34.6608C115.109 34.8167 115.727 34.8863 116.387 34.8863C116.387 34.8167 116.381 34.7471 116.381 34.6747C116.381 32.0444 116.649 29.8233 117.133 27.9445C115.694 28.2201 114.428 28.7601 113.537 29.4893C112.524 30.3188 112.02 31.3597 112.117 32.4174C112.268 34.0401 112.88 35.0227 114.163 35.699C114.812 36.0414 115.602 36.2585 116.482 36.342C116.471 36.2446 116.459 36.1499 116.451 36.0525H116.448Z" fill="white"/>
<path d="M130.889 3C115.869 3 103.648 15.219 103.648 30.2408C103.648 45.2626 115.867 57.4816 130.889 57.4816C145.91 57.4816 158.129 45.2626 158.129 30.2408C158.129 15.219 145.908 3 130.889 3ZM105.318 30.2408C105.318 16.1403 116.788 4.67002 130.889 4.67002C144.989 4.67002 156.459 16.1403 156.459 30.2408C156.459 31.9749 156.284 33.6671 155.956 35.3065L144.215 21.5456C145.248 23.4577 145.824 25.6789 145.874 28.0754V28.1199C145.885 28.6571 145.905 29.467 145.849 30.0376C145.841 30.1128 145.802 30.1796 145.743 30.2269C145.935 31.5629 146.038 33.0381 146.038 34.6747C146.038 43.0916 139.333 46.1812 131.211 46.1867C126.313 46.1867 121.934 45.0567 119.226 42.3206L130.343 55.8088C116.496 55.5166 105.321 44.1604 105.321 30.2464L105.318 30.2408Z" fill="white"/>
<path d="M131.214 18.392C123.09 18.4226 116.387 21.3869 116.387 34.6747C116.387 43.0916 123.092 46.1812 131.214 46.1867C139.339 46.184 146.041 43.0916 146.041 34.6747C146.041 21.3869 139.336 18.4226 131.214 18.392Z" stroke="white" stroke-width="0.278337" stroke-miterlimit="10"/>
<path d="M131.209 39.4788V39.4844C130.365 39.5122 129.486 40.0188 128.698 40.2303C128.364 40.3194 128.016 40.3806 127.666 40.414C127.688 40.4252 127.71 40.4419 127.732 40.453C128.066 40.6228 128.411 40.7675 128.768 40.8844C129.553 41.1433 130.385 41.2602 131.209 41.2602C131.209 41.2602 131.209 41.2602 131.212 41.2602C131.214 41.2602 131.212 41.2602 131.214 41.2602C132.038 41.2602 132.87 41.1433 133.655 40.8844C134.012 40.7675 134.357 40.6228 134.691 40.453C134.713 40.4419 134.735 40.4279 134.758 40.414C134.404 40.3806 134.056 40.3194 133.722 40.2303C132.934 40.0188 132.055 39.5067 131.212 39.4788H131.209Z" fill="white"/>
<path d="M135.27 40.5504C134.769 40.5504 134.237 40.478 133.694 40.3333C133.405 40.2554 133.11 40.1413 132.798 40.0188C132.289 39.8212 131.763 39.6152 131.256 39.5846H131.214C130.691 39.6068 130.145 39.8184 129.617 40.0216C129.308 40.1413 129.015 40.2554 128.726 40.3305C127.348 40.7007 126.043 40.5949 125.144 40.0466C124.615 39.7238 124.156 39.1086 124.392 38.5213C124.595 38.0203 125.199 37.7837 125.673 37.6724C126.711 37.4275 127.579 37.0545 128.5 36.6593L128.937 36.4728C129.672 36.161 130.438 36.0024 131.211 35.9996C131.988 35.9996 132.753 36.161 133.485 36.4728L133.922 36.6593C134.844 37.0545 135.715 37.4303 136.75 37.6724C137.224 37.7837 137.828 38.0203 138.031 38.5213C138.267 39.1086 137.808 39.7238 137.279 40.0466C136.736 40.3778 136.043 40.5476 135.275 40.5476L135.27 40.5504ZM131.211 39.3758C131.768 39.3953 132.328 39.6124 132.87 39.824C133.176 39.9436 133.466 40.055 133.744 40.1301C135.066 40.4836 136.313 40.389 137.162 39.8685C137.619 39.5901 138.022 39.0752 137.83 38.5993C137.652 38.1595 137.045 37.9563 136.697 37.8756C135.643 37.6279 134.766 37.2493 133.836 36.8513L133.399 36.6648C132.692 36.3642 131.955 36.2111 131.206 36.2084C130.46 36.2084 129.722 36.3642 129.013 36.6648L128.578 36.8513C127.649 37.2521 126.769 37.6279 125.714 37.8756C125.366 37.9563 124.757 38.1595 124.581 38.5993C124.389 39.0752 124.793 39.5901 125.249 39.8685C126.098 40.389 127.345 40.4836 128.667 40.1301C128.946 40.055 129.232 39.9436 129.536 39.8267C130.048 39.6291 130.577 39.4259 131.1 39.3842V39.3758H131.209H131.211Z" fill="white"/>
<path d="M132.311 37.369C132.548 37.6418 132.862 37.8784 133.049 37.5778C133.132 37.4414 133.012 37.28 132.873 37.1825C132.648 37.0211 132.297 36.8875 132.005 36.9348C132.038 37.0072 132.155 37.1965 132.308 37.3718L132.311 37.369Z" fill="white"/>
<path d="M130.134 37.369C129.898 37.6418 129.583 37.8784 129.397 37.5778C129.313 37.4414 129.433 37.28 129.572 37.1825C129.797 37.0211 130.148 36.8875 130.44 36.9348C130.407 37.0072 130.29 37.1965 130.137 37.3718L130.134 37.369Z" fill="white"/>
<path d="M142.242 40.7146C142.579 40.7146 142.851 40.4417 142.851 40.1051C142.851 39.7684 142.579 39.4955 142.242 39.4955C141.905 39.4955 141.632 39.7684 141.632 40.1051C141.632 40.4417 141.905 40.7146 142.242 40.7146Z" fill="white"/>
<path d="M140.455 41.9532C140.719 41.9532 140.934 41.7389 140.934 41.4745C140.934 41.2101 140.719 40.9958 140.455 40.9958C140.19 40.9958 139.976 41.2101 139.976 41.4745C139.976 41.7389 140.19 41.9532 140.455 41.9532Z" fill="white"/>
<path d="M126.118 31.6381C126.054 31.5907 125.971 31.5768 125.893 31.5657C123.928 31.2929 121.965 31.0201 120 30.7474C119.867 30.7279 119.716 30.714 119.608 30.7975C119.521 30.8643 119.48 30.9784 119.449 31.0869C119.318 31.5239 119.012 32.9546 119.441 33.3359C119.51 33.3999 119.608 33.4083 119.697 33.4138C121.612 33.5558 123.53 33.695 125.444 33.8369C125.547 33.8453 125.656 33.8508 125.742 33.7952C125.837 33.7367 125.884 33.6226 125.92 33.5113C126.085 33.0464 126.188 32.5538 126.229 32.0528C126.241 31.9164 126.241 31.7577 126.143 31.6603C126.135 31.652 126.126 31.6436 126.115 31.6381H126.118Z" fill="white"/>
<path d="M120.228 40.723C120.565 40.723 120.838 40.4501 120.838 40.1134C120.838 39.7768 120.565 39.5038 120.228 39.5038C119.892 39.5038 119.619 39.7768 119.619 40.1134C119.619 40.4501 119.892 40.723 120.228 40.723Z" fill="white"/>
<path d="M122.018 41.9644C122.282 41.9644 122.497 41.75 122.497 41.4856C122.497 41.2212 122.282 41.0069 122.018 41.0069C121.754 41.0069 121.539 41.2212 121.539 41.4856C121.539 41.75 121.754 41.9644 122.018 41.9644Z" fill="white"/>
<path d="M122.574 32.9713C121.038 32.9713 119.788 34.221 119.788 35.7574C119.788 37.2939 121.038 38.5436 122.574 38.5436C124.111 38.5436 125.361 37.2939 125.361 35.7574C125.361 34.221 124.111 32.9713 122.574 32.9713ZM122.574 33.2496C123.958 33.2496 125.082 34.3741 125.082 35.7574C125.082 35.7714 125.082 35.7853 125.082 35.7992H124.027C124.036 35.635 123.994 35.4707 123.891 35.3316L123.192 34.363C123.053 34.1709 122.839 34.0624 122.602 34.0624C122.366 34.0624 122.149 34.1737 122.012 34.363L121.314 35.3316C121.213 35.4707 121.169 35.6377 121.177 35.7992H120.072C120.072 35.7992 120.072 35.7714 120.072 35.7574C120.072 34.3741 121.197 33.2496 122.58 33.2496H122.574ZM123.666 36.0413L122.967 37.01C122.881 37.1296 122.747 37.1964 122.602 37.1964C122.458 37.1964 122.324 37.1269 122.238 37.01L121.539 36.0413C121.425 35.8827 121.425 35.6711 121.539 35.5125L122.238 34.5439C122.324 34.4242 122.458 34.3574 122.602 34.3574C122.747 34.3574 122.881 34.427 122.967 34.5439L123.666 35.5125C123.78 35.6711 123.78 35.8827 123.666 36.0413Z" fill="white"/>
<path d="M139.845 32.9713C138.309 32.9713 137.059 34.221 137.059 35.7574C137.059 37.2939 138.309 38.5436 139.845 38.5436C141.382 38.5436 142.632 37.2939 142.632 35.7574C142.632 34.221 141.382 32.9713 139.845 32.9713ZM139.845 33.2496C141.229 33.2496 142.353 34.3741 142.353 35.7574C142.353 35.7714 142.353 35.7853 142.353 35.7992H141.298C141.307 35.635 141.265 35.4707 141.162 35.3316L140.463 34.363C140.324 34.1709 140.11 34.0624 139.873 34.0624C139.637 34.0624 139.42 34.1737 139.283 34.363L138.585 35.3316C138.484 35.4707 138.44 35.6377 138.448 35.7992H137.343C137.343 35.7992 137.343 35.7714 137.343 35.7574C137.343 34.3741 138.468 33.2496 139.851 33.2496H139.845ZM140.937 36.0413L140.238 37.01C140.152 37.1296 140.018 37.1964 139.873 37.1964C139.729 37.1964 139.595 37.1269 139.509 37.01L138.81 36.0413C138.696 35.8827 138.696 35.6711 138.81 35.5125L139.509 34.5439C139.595 34.4242 139.729 34.3574 139.873 34.3574C140.018 34.3574 140.152 34.427 140.238 34.5439L140.937 35.5125C141.051 35.6711 141.051 35.8827 140.937 36.0413Z" fill="white"/>
<path d="M135.807 29.9681C135.868 29.9096 135.954 29.8818 136.035 29.8595C138.061 29.2833 140.09 28.71 142.117 28.1338C142.256 28.0948 142.409 28.0559 142.537 28.1282C142.637 28.1839 142.698 28.298 142.749 28.4094C142.949 28.8519 143.483 30.3104 143.088 30.7752C143.024 30.8532 142.924 30.8754 142.829 30.8949C140.834 31.3236 138.838 31.7522 136.839 32.1836C136.734 32.2059 136.62 32.2281 136.519 32.1836C136.414 32.1363 136.347 32.0222 136.288 31.9108C136.046 31.4432 135.865 30.9422 135.751 30.419C135.72 30.277 135.698 30.11 135.785 29.9959C135.793 29.9848 135.801 29.9764 135.81 29.9681H135.807Z" fill="white"/>
<path d="M136.066 25.3532L134.265 25.3143H134.262C134.145 25.3143 134.051 25.4173 134.048 25.5453L133.981 28.4873C133.981 28.5931 133.981 28.6905 134.023 28.7462C134.07 28.8074 134.173 28.8241 134.312 28.8269L135.957 28.8631C136.002 28.8631 136.049 28.8631 136.094 28.8603C136.235 28.8464 136.28 28.8018 136.297 28.7684C136.325 28.7183 136.327 28.6376 136.33 28.568L136.397 25.6956C136.397 25.587 136.397 25.4868 136.355 25.4284C136.305 25.3616 136.183 25.3532 136.071 25.3505L136.066 25.3532Z" fill="white"/>
<path d="M145.768 28.71C145.763 28.4678 145.746 28.2284 145.727 27.9891C145.626 24.2427 144.185 20.6549 141.318 18.2111C138.579 15.8786 134.348 14.6484 131.209 14.64C131.209 14.64 131.197 14.64 131.192 14.64C131.186 14.64 131.181 14.64 131.175 14.64C127.997 14.6484 123.746 15.8814 120.977 18.2139C118.074 20.6577 116.632 24.2454 116.529 27.9891C116.51 28.2284 116.493 28.4706 116.487 28.7127C116.476 29.1748 116.521 29.5032 116.576 30.0154C116.582 30.0154 116.588 30.0098 116.593 30.0098V30.0154C119.585 29.1637 123.329 28.7656 125.692 28.5875C125.859 28.7072 126.059 28.7768 126.279 28.7768H133.588C133.605 28.8519 133.633 28.9271 133.686 28.9967C133.864 29.2332 134.159 29.2416 134.301 29.2444L135.946 29.2806H135.996C136.04 29.2806 136.085 29.2806 136.13 29.275C136.438 29.2472 136.586 29.0969 136.656 28.9772C136.736 28.8408 136.742 28.6933 136.745 28.5903C137.357 28.6376 138.061 28.6988 138.815 28.7796L142.041 27.8638C142.139 27.836 142.25 27.8082 142.37 27.8082C142.481 27.8082 142.584 27.8332 142.673 27.8833C142.84 27.9779 142.929 28.1366 142.999 28.2925C143.018 28.3342 143.255 28.8631 143.397 29.4587C144.171 29.6118 144.931 29.7899 145.646 29.9931C145.66 29.9987 145.676 30.0042 145.69 30.0098C145.69 30.0098 145.69 30.007 145.69 30.0042C145.696 30.0042 145.702 30.007 145.707 30.0098C145.718 29.8762 145.727 29.7287 145.732 29.5756C145.76 29.2806 145.774 29.0273 145.766 28.71H145.768ZM127.406 27.4909C127.148 27.4909 126.936 27.2877 126.936 27.0372C126.936 26.7867 127.145 26.5835 127.406 26.5835C127.668 26.5835 127.877 26.7867 127.877 27.0372C127.877 27.2877 127.668 27.4909 127.406 27.4909ZM129.466 27.4909C129.207 27.4909 128.996 27.2877 128.996 27.0372C128.996 26.7867 129.205 26.5835 129.466 26.5835C129.728 26.5835 129.937 26.7867 129.937 27.0372C129.937 27.2877 129.728 27.4909 129.466 27.4909ZM131.389 27.4909C131.131 27.4909 130.919 27.2877 130.919 27.0372C130.919 26.7867 131.128 26.5835 131.389 26.5835C131.651 26.5835 131.86 26.7867 131.86 27.0372C131.86 27.2877 131.651 27.4909 131.389 27.4909ZM133.652 25.3811H131.512C131.401 25.3811 131.289 25.3811 131.175 25.3811C131.069 25.3811 130.966 25.3811 130.861 25.3811H126.727C126.88 23.3743 128.52 22.1496 130.087 21.9046C130.457 21.8462 130.841 21.7794 131.189 21.7766C131.559 21.7794 131.924 21.849 132.288 21.9046C133.716 22.1301 135.205 23.1878 135.551 24.9246L134.273 24.8968C134.273 24.8968 134.273 24.8968 134.27 24.8968H134.259C133.97 24.8968 133.722 25.1027 133.65 25.3811H133.652ZM136.672 25.7011L136.605 28.5736C136.605 28.6682 136.6 28.7963 136.536 28.9076C136.458 29.0412 136.316 29.1163 136.116 29.1358C136.074 29.1386 136.035 29.1414 135.996 29.1414C135.979 29.1414 135.965 29.1414 135.949 29.1414L134.304 29.1052C134.176 29.1024 133.933 29.0969 133.797 28.9132C133.694 28.7768 133.7 28.5986 133.702 28.4817L133.769 25.5397C133.775 25.2614 133.995 25.0387 134.262 25.0387H134.273L136.074 25.0777C136.199 25.0805 136.436 25.086 136.572 25.2614C136.681 25.4005 136.675 25.5842 136.672 25.7039V25.7011Z" fill="white"/>
<path d="M142.746 28.4094C142.696 28.298 142.634 28.1839 142.534 28.1282C142.481 28.0976 142.426 28.0893 142.367 28.0893C142.284 28.0893 142.195 28.1115 142.114 28.1366C141.257 28.3787 140.399 28.6237 139.542 28.8658C140.678 28.9994 141.894 29.1748 143.091 29.403C142.982 28.9911 142.829 28.6042 142.743 28.4121L142.746 28.4094Z" fill="white"/>
</g>
<defs>
<clipPath id="clip0_1101_50123">
<rect width="146.11" height="65" fill="white" transform="translate(19 3)"/>
</clipPath>
</defs>
</svg>
