<svg width="150" height="60" viewBox="0 0 150 60" fill="none" xmlns="http://www.w3.org/2000/svg">
<g clip-path="url(#clip0_1484_9806)">
<path d="M25.3015 13.0622H17.8897V21.702H14.1683V27.5115H17.8897V45.8726H24.6341L25.2965 45.8489L25.3015 27.5115H29.8949V21.702H25.3015V13.0622Z" fill="white"/>
<path d="M5.85168 38.5571H13.1679V45.873H5.85168V38.5571Z" fill="white"/>
<mask id="mask0_1484_9806" style="mask-type:luminance" maskUnits="userSpaceOnUse" x="0" y="-45" width="151" height="150">
<path d="M0.0065918 -45H150.007V105H0.0065918V-45Z" fill="white"/>
</mask>
<g mask="url(#mask0_1484_9806)">
<path d="M53.4843 25.5191H53.5094L53.343 25.3023C53.1473 25.0148 52.9328 24.7337 52.6998 24.4635L52.6916 24.4517C52.5771 24.3054 49.8662 20.849 44.4687 20.849H44.4669C44.346 20.8539 41.948 20.9577 40.0115 21.8252V13.0614H33.032V45.6125H40.0115L40.0209 32.879C40.0209 31.412 40.2719 30.2748 40.793 29.4042C41.0708 28.9382 41.4755 28.5429 42.0014 28.2306C42.5876 27.8771 43.2911 27.669 44.0343 27.6254C44.7539 27.5816 45.4718 27.6812 46.1055 27.9083C47.7306 28.491 48.4313 30.27 48.4044 31.7862L48.4056 32.733C48.4092 32.7831 48.4119 32.8323 48.4169 32.8793C48.4218 32.9244 48.4245 32.969 48.4245 33.0176V45.6128H55.3421L55.3403 33.0563C55.3521 32.8646 55.5603 28.7751 53.4843 25.5191Z" fill="white"/>
</g>
<mask id="mask1_1484_9806" style="mask-type:luminance" maskUnits="userSpaceOnUse" x="52" y="7" width="99" height="49">
<path d="M52.647 55.7964H150.007V7.03198H52.647V55.7964Z" fill="white"/>
</mask>
<g mask="url(#mask1_1484_9806)">
<path d="M97.8224 32.3258C96.8131 33.3311 95.4185 33.8449 94.0372 33.4963C92.6551 33.1475 91.5544 32.1298 91.052 30.7957C89.4826 26.6273 85.4666 23.66 80.7493 23.6603C74.9141 23.6603 69.9628 28.4129 69.7375 34.2437C69.4945 40.5292 74.5181 45.7012 80.7494 45.7012C85.4807 45.7012 89.5061 42.7163 91.0658 38.5288C91.5515 37.2247 92.617 36.2234 93.9662 35.8829H93.9664C95.3021 35.5459 96.7747 35.8772 97.6955 36.9019C98.2979 37.5721 99.1688 37.9937 100.143 37.9937C102.23 37.9937 98.5699 31.5814 97.8224 32.3258Z" fill="white"/>
</g>
<mask id="mask2_1484_9806" style="mask-type:luminance" maskUnits="userSpaceOnUse" x="52" y="7" width="99" height="49">
<path d="M52.647 55.7964H150.007V7.03198H52.647V55.7964Z" fill="white"/>
</mask>
<g mask="url(#mask2_1484_9806)">
<path d="M71.443 46.4677C70.7579 47.1527 69.6473 47.1527 68.9623 46.4677C68.2772 45.7825 68.2772 44.672 68.9623 43.987C69.6473 43.3018 70.7579 43.3018 71.443 43.987C72.128 44.672 72.128 45.7825 71.443 46.4677Z" fill="white"/>
</g>
<mask id="mask3_1484_9806" style="mask-type:luminance" maskUnits="userSpaceOnUse" x="52" y="7" width="99" height="49">
<path d="M52.647 55.7964H150.007V7.03198H52.647V55.7964Z" fill="white"/>
</mask>
<g mask="url(#mask3_1484_9806)">
<path d="M94.7672 30.0532C94.6278 30.0532 94.4918 29.9925 94.398 29.8723C94.3313 29.7861 94.2783 29.6926 94.2413 29.5944C92.1368 24.0063 86.7146 20.2518 80.7492 20.2518C78.1926 20.2519 75.6507 20.9706 73.398 22.33C73.1693 22.4689 72.8691 22.3951 72.7296 22.1649C72.5909 21.9346 72.6648 21.6354 72.8954 21.4963C75.2993 20.0454 78.0155 19.2783 80.7492 19.2783C87.1175 19.2783 92.9057 23.286 95.1527 29.251C95.3175 29.4634 95.2863 29.7813 95.0741 29.9461C94.9818 30.0177 94.8738 30.0532 94.7672 30.0532Z" fill="white"/>
</g>
<mask id="mask4_1484_9806" style="mask-type:luminance" maskUnits="userSpaceOnUse" x="52" y="7" width="99" height="49">
<path d="M52.647 55.7964H150.007V7.03198H52.647V55.7964Z" fill="white"/>
</mask>
<g mask="url(#mask4_1484_9806)">
<path d="M80.7492 50.0825C77.9736 50.0825 75.2475 49.3286 72.8661 47.9024C72.6354 47.7641 72.5603 47.465 72.6986 47.2345C72.8367 47.0036 73.136 46.9291 73.3662 47.0668C75.5966 48.4028 78.1499 49.1089 80.7492 49.1089C86.738 49.1089 92.1668 45.3352 94.2587 39.7186C94.2989 39.6106 94.3575 39.5335 94.3895 39.4921C94.5522 39.2783 94.8578 39.2372 95.0717 39.4004C95.2854 39.5635 95.3265 39.869 95.163 40.0828C95.1623 40.0838 95.1617 40.0847 95.1611 40.0855C92.9201 46.0669 87.1322 50.0825 80.7492 50.0825Z" fill="white"/>
</g>
<mask id="mask5_1484_9806" style="mask-type:luminance" maskUnits="userSpaceOnUse" x="52" y="7" width="99" height="49">
<path d="M52.647 55.7964H150.007V7.03198H52.647V55.7964Z" fill="white"/>
</mask>
<g mask="url(#mask5_1484_9806)">
<path d="M67.9445 42.8018C67.7789 42.8018 67.6179 42.7173 67.5266 42.5651C65.9927 40.0049 65.2431 37.0688 65.3592 34.074C65.4572 31.5425 66.2166 29.0333 67.5563 26.8181C67.6958 26.5878 67.995 26.5145 68.225 26.6534C68.4549 26.7926 68.5284 27.092 68.3895 27.3219C67.1351 29.3964 66.4235 31.7442 66.332 34.1115C66.2234 36.9171 66.9252 39.6669 68.3616 42.0645C68.5001 42.2952 68.4249 42.5943 68.1942 42.7323C68.1159 42.7793 68.0298 42.8018 67.9445 42.8018Z" fill="white"/>
</g>
<mask id="mask6_1484_9806" style="mask-type:luminance" maskUnits="userSpaceOnUse" x="52" y="7" width="99" height="49">
<path d="M52.647 55.7964H150.007V7.03198H52.647V55.7964Z" fill="white"/>
</mask>
<g mask="url(#mask6_1484_9806)">
<path d="M71.443 22.8937C72.128 23.5787 72.128 24.6893 71.443 25.3744C70.7579 26.0594 69.6473 26.0594 68.9623 25.3744C68.2772 24.6893 68.2772 23.5787 68.9623 22.8937C69.6473 22.2086 70.7579 22.2086 71.443 22.8937Z" fill="white"/>
</g>
<mask id="mask7_1484_9806" style="mask-type:luminance" maskUnits="userSpaceOnUse" x="52" y="7" width="99" height="49">
<path d="M52.647 55.7969H150.007V7.03247H52.647V55.7969Z" fill="white"/>
</mask>
<g mask="url(#mask7_1484_9806)">
<mask id="mask8_1484_9806" style="mask-type:luminance" maskUnits="userSpaceOnUse" x="96" y="39" width="47" height="5">
<path d="M96.327 39.7537H142.61V43.7061H96.327V39.7537Z" fill="white"/>
</mask>
<g mask="url(#mask8_1484_9806)">
<mask id="mask9_1484_9806" style="mask-type:luminance" maskUnits="userSpaceOnUse" x="96" y="39" width="47" height="5">
<path d="M96.3271 43.7056H142.61V39.7538H96.3271V43.7056Z" fill="white"/>
</mask>
<g mask="url(#mask9_1484_9806)">
<path d="M98.2959 43.6879L96.3271 43.7056L97.5385 40.1465L99.5065 40.1299L98.2959 43.6879Z" fill="white"/>
</g>
</g>
<mask id="mask10_1484_9806" style="mask-type:luminance" maskUnits="userSpaceOnUse" x="96" y="39" width="47" height="5">
<path d="M96.327 39.7537H142.61V43.7061H96.327V39.7537Z" fill="white"/>
</mask>
<g mask="url(#mask10_1484_9806)">
<path d="M100.264 43.6714L98.2958 43.689L99.5064 40.131L101.475 40.1133L100.264 43.6714Z" fill="white"/>
</g>
<mask id="mask11_1484_9806" style="mask-type:luminance" maskUnits="userSpaceOnUse" x="96" y="39" width="47" height="5">
<path d="M96.327 39.7537H142.61V43.7061H96.327V39.7537Z" fill="white"/>
</mask>
<g mask="url(#mask11_1484_9806)">
<path d="M106.129 43.6206L104.161 43.6372L105.372 40.0791L107.34 40.0617L106.129 43.6206Z" fill="white"/>
</g>
<mask id="mask12_1484_9806" style="mask-type:luminance" maskUnits="userSpaceOnUse" x="96" y="39" width="47" height="5">
<path d="M96.327 39.7537H142.61V43.7061H96.327V39.7537Z" fill="white"/>
</mask>
<g mask="url(#mask12_1484_9806)">
<path d="M108.097 43.6034L106.129 43.6211L107.34 40.062L109.308 40.0445L108.097 43.6034Z" fill="white"/>
</g>
<mask id="mask13_1484_9806" style="mask-type:luminance" maskUnits="userSpaceOnUse" x="96" y="39" width="47" height="5">
<path d="M96.327 39.7537H142.61V43.7061H96.327V39.7537Z" fill="white"/>
</mask>
<g mask="url(#mask13_1484_9806)">
<path d="M113.962 43.5518L111.994 43.5693L113.204 40.0103L115.173 39.9929L113.962 43.5518Z" fill="white"/>
</g>
<mask id="mask14_1484_9806" style="mask-type:luminance" maskUnits="userSpaceOnUse" x="96" y="39" width="47" height="5">
<path d="M96.327 39.7537H142.61V43.7061H96.327V39.7537Z" fill="white"/>
</mask>
<g mask="url(#mask14_1484_9806)">
<path d="M115.931 43.5345L113.962 43.5522L115.173 39.9932L117.141 39.9756L115.931 43.5345Z" fill="white"/>
</g>
<mask id="mask15_1484_9806" style="mask-type:luminance" maskUnits="userSpaceOnUse" x="96" y="39" width="47" height="5">
<path d="M96.327 39.7537H142.61V43.7061H96.327V39.7537Z" fill="white"/>
</mask>
<g mask="url(#mask15_1484_9806)">
<path d="M121.795 43.4838L119.827 43.5005L121.038 39.9425L123.006 39.9249L121.795 43.4838Z" fill="white"/>
</g>
<mask id="mask16_1484_9806" style="mask-type:luminance" maskUnits="userSpaceOnUse" x="96" y="39" width="47" height="5">
<path d="M96.327 39.7537H142.61V43.7061H96.327V39.7537Z" fill="white"/>
</mask>
<g mask="url(#mask16_1484_9806)">
<path d="M123.764 43.4658L121.795 43.4844L123.006 39.9253L124.975 39.9078L123.764 43.4658Z" fill="white"/>
</g>
<mask id="mask17_1484_9806" style="mask-type:luminance" maskUnits="userSpaceOnUse" x="96" y="39" width="47" height="5">
<path d="M96.327 39.7537H142.61V43.7061H96.327V39.7537Z" fill="white"/>
</mask>
<g mask="url(#mask17_1484_9806)">
<path d="M129.629 43.4139L127.66 43.4326L128.871 39.8736L130.839 39.8559L129.629 43.4139Z" fill="white"/>
</g>
<mask id="mask18_1484_9806" style="mask-type:luminance" maskUnits="userSpaceOnUse" x="96" y="39" width="47" height="5">
<path d="M96.327 39.7537H142.61V43.7061H96.327V39.7537Z" fill="white"/>
</mask>
<g mask="url(#mask18_1484_9806)">
<path d="M131.597 43.3979L129.629 43.4146L130.839 39.8566L132.808 39.839L131.597 43.3979Z" fill="white"/>
</g>
<mask id="mask19_1484_9806" style="mask-type:luminance" maskUnits="userSpaceOnUse" x="96" y="39" width="47" height="5">
<path d="M96.327 39.7537H142.61V43.7061H96.327V39.7537Z" fill="white"/>
</mask>
<g mask="url(#mask19_1484_9806)">
<path d="M137.462 43.3461L135.493 43.3638L136.704 39.8047L138.672 39.7872L137.462 43.3461Z" fill="white"/>
</g>
<mask id="mask20_1484_9806" style="mask-type:luminance" maskUnits="userSpaceOnUse" x="96" y="39" width="47" height="5">
<path d="M96.327 39.7537H142.61V43.7061H96.327V39.7537Z" fill="white"/>
</mask>
<g mask="url(#mask20_1484_9806)">
<path d="M139.43 43.329L137.462 43.3467L138.673 39.7876L140.641 39.7701L139.43 43.329Z" fill="white"/>
</g>
</g>
<mask id="mask21_1484_9806" style="mask-type:luminance" maskUnits="userSpaceOnUse" x="52" y="7" width="99" height="49">
<path d="M52.647 55.7964H150.007V7.03198H52.647V55.7964Z" fill="white"/>
</mask>
<g mask="url(#mask21_1484_9806)">
<path d="M97.6838 37.3914C97.3396 37.0147 97.1681 36.4383 97.1681 35.6619V23.3197C97.1681 22.0557 97.2677 21.0409 97.4675 20.2758C97.6672 19.5108 98.044 18.8404 98.5985 18.2634L99.9956 16.7997H94.9058C94.5509 16.7997 94.3013 16.7328 94.1573 16.5997C94.0135 16.4668 93.9412 16.2231 93.9412 15.8682V14.5375C93.9412 14.1829 94.0135 13.9273 94.1573 13.7725C94.3013 13.6173 94.5509 13.5396 94.9058 13.5396H104.087C104.487 13.5396 104.78 13.6173 104.969 13.7725C105.157 13.9273 105.252 14.2047 105.252 14.604V15.5685C105.252 15.8793 105.207 16.1065 105.119 16.2507C105.03 16.3951 104.853 16.5997 104.587 16.8661L102.724 18.6957C102.235 19.1839 101.897 19.7934 101.709 20.5254C101.52 21.2572 101.426 22.2004 101.426 23.353V33.799C101.426 34.1313 101.476 34.3588 101.576 34.4805C101.676 34.6029 101.881 34.6635 102.191 34.6635H103.089C103.444 34.6635 103.688 34.7302 103.822 34.8634C103.954 34.9962 104.021 35.229 104.021 35.5621V37.0255C104.021 37.4031 103.932 37.6521 103.755 37.7739C103.577 37.8963 103.244 37.957 102.757 37.957H99.4301C98.6093 37.957 98.0273 37.7689 97.6838 37.3914Z" fill="white"/>
</g>
<mask id="mask22_1484_9806" style="mask-type:luminance" maskUnits="userSpaceOnUse" x="52" y="7" width="99" height="49">
<path d="M52.647 55.7964H150.007V7.03198H52.647V55.7964Z" fill="white"/>
</mask>
<g mask="url(#mask22_1484_9806)">
<path d="M106.981 37.6576C106.782 37.4577 106.682 37.1583 106.682 36.7591V21.6229C106.682 21.246 106.759 20.9634 106.914 20.7745C107.069 20.5863 107.336 20.4919 107.713 20.4919H109.376C109.687 20.4919 109.914 20.5584 110.058 20.6913C110.202 20.8248 110.275 21.0357 110.275 21.3235V22.6542C111.76 20.8803 113.912 19.9927 116.728 19.9927C118.68 19.9927 120.249 20.5366 121.436 21.6229C122.622 22.7098 123.215 24.2733 123.215 26.3137V36.7591C123.215 37.1583 123.121 37.4577 122.932 37.6576C122.744 37.857 122.428 37.957 121.985 37.957H120.221C119.778 37.957 119.456 37.857 119.256 37.6576C119.057 37.4577 118.957 37.1583 118.957 36.7591V26.3799C118.957 25.2493 118.675 24.4171 118.109 23.8849C117.543 23.3527 116.673 23.0868 115.497 23.0868C114.654 23.0868 113.884 23.2527 113.186 23.5857C112.487 23.9184 111.938 24.3567 111.539 24.8997C111.139 25.4436 110.94 26.0034 110.94 26.5798V36.7591C110.94 37.1583 110.845 37.4577 110.657 37.6576C110.469 37.857 110.141 37.957 109.676 37.957H107.946C107.502 37.957 107.181 37.857 106.981 37.6576Z" fill="white"/>
</g>
<mask id="mask23_1484_9806" style="mask-type:luminance" maskUnits="userSpaceOnUse" x="52" y="7" width="99" height="49">
<path d="M52.647 55.7964H150.007V7.03198H52.647V55.7964Z" fill="white"/>
</mask>
<g mask="url(#mask23_1484_9806)">
<path d="M127.989 37.0753C126.448 36.1557 125.677 34.7416 125.677 32.8342C125.677 30.6609 126.586 29.2638 128.405 28.6425C127.517 28.2433 126.863 27.7224 126.442 27.0787C126.021 26.4361 125.81 25.6264 125.81 24.6504C125.81 23.808 126.021 23.0319 126.442 22.3216C126.863 21.6123 127.468 21.0471 128.255 20.6253C129.042 20.2039 129.957 19.9932 131 19.9932C132.33 19.9932 133.483 20.2377 134.459 20.725C134.747 20.8807 134.892 21.0577 134.892 21.2572L134.825 21.5566L134.36 22.8873C134.271 23.1319 134.127 23.2531 133.927 23.2531C133.816 23.2531 133.727 23.2315 133.661 23.1867C133.195 22.9209 132.629 22.7875 131.964 22.7875C131.299 22.7875 130.783 22.9873 130.417 23.3866C130.052 23.7856 129.868 24.3181 129.868 24.9831C129.868 25.7817 130.118 26.3754 130.617 26.763C131.116 27.1513 131.875 27.3453 132.896 27.3453H133.594C133.861 27.3453 134.049 27.3951 134.16 27.495C134.271 27.595 134.327 27.7774 134.327 28.044V29.2081C134.327 29.7186 134.071 29.9733 133.561 29.9733H133.029C131.92 29.9733 131.116 30.1783 130.617 30.5886C130.118 30.9991 129.868 31.6809 129.868 32.6347C129.868 34.4308 131.266 35.329 134.06 35.329C135.59 35.329 136.694 34.9635 137.37 34.2313C138.046 33.4992 138.385 32.3467 138.385 30.7717V21.723C138.385 21.3018 138.479 20.9914 138.667 20.7916C138.856 20.5923 139.172 20.4924 139.616 20.4924H141.345C141.789 20.4924 142.111 20.5923 142.31 20.7916C142.51 20.9914 142.61 21.3018 142.61 21.723V30.7717C142.61 35.895 139.77 38.4561 134.093 38.4561C131.565 38.4561 129.53 37.9957 127.989 37.0753Z" fill="white"/>
</g>
<mask id="mask24_1484_9806" style="mask-type:luminance" maskUnits="userSpaceOnUse" x="52" y="7" width="99" height="49">
<path d="M52.647 55.7964H150.007V7.03198H52.647V55.7964Z" fill="white"/>
</mask>
<g mask="url(#mask24_1484_9806)">
<path d="M74.594 36.0738C74.3129 35.7099 74.1724 35.2341 74.1724 34.6468C74.1724 33.924 74.3581 33.3756 74.7295 33.0015C75.101 32.6275 75.6382 32.4406 76.3409 32.4406C77.0137 32.4406 77.5094 32.596 77.8283 32.9073C78.1471 33.2187 78.3064 33.6226 78.3064 34.1196V36.2358C78.3064 36.3261 78.2849 36.3939 78.2423 36.439C78.1996 36.4842 78.1258 36.5068 78.0202 36.5068H77.6212C77.5207 36.5068 77.4479 36.4842 77.4028 36.439C77.3576 36.3939 77.335 36.3261 77.335 36.2358V34.1122C77.335 33.8059 77.2571 33.5713 77.1016 33.4081C76.9459 33.2451 76.6924 33.1633 76.3409 33.1633C75.9293 33.1633 75.623 33.2827 75.4223 33.5209C75.2216 33.7596 75.1211 34.1373 75.1211 34.6542C75.1211 35.0608 75.1951 35.3698 75.3433 35.5804C75.4913 35.7915 75.7009 35.8968 75.9721 35.8968C76.1477 35.8968 76.2883 35.8717 76.3937 35.8215C76.4239 35.8065 76.4464 35.7988 76.4614 35.7988C76.5016 35.7988 76.5293 35.8341 76.5443 35.9044L76.6723 36.3411C76.6772 36.3561 76.6799 36.3738 76.6799 36.3939C76.6799 36.429 76.6498 36.4591 76.5895 36.4842C76.3835 36.5745 76.1201 36.6196 75.7988 36.6196C75.2767 36.6196 74.8751 36.4378 74.594 36.0738Z" fill="#252525"/>
</g>
<mask id="mask25_1484_9806" style="mask-type:luminance" maskUnits="userSpaceOnUse" x="63" y="11" width="98" height="49">
<path d="M159.913 59.4409V11.6763H63.554V59.4409H159.913Z" fill="white" stroke="white"/>
</mask>
<g mask="url(#mask25_1484_9806)">
</g>
<mask id="mask26_1484_9806" style="mask-type:luminance" maskUnits="userSpaceOnUse" x="52" y="7" width="99" height="49">
<path d="M149.506 55.2964V7.53174H53.147V55.2964H149.506Z" fill="white" stroke="white"/>
</mask>
<g mask="url(#mask26_1484_9806)">
<mask id="path-53-inside-1_1484_9806" fill="white">
<path d="M79.5073 36.2506C79.2036 36.0048 79.0518 35.6407 79.0518 35.1586V34.4809C79.0518 34.4008 79.0707 34.3405 79.1082 34.3003C79.146 34.2601 79.21 34.2402 79.3003 34.2402H80.3394C80.4147 34.2402 80.4675 34.2564 80.4976 34.2891C80.5276 34.3218 80.5428 34.3756 80.5428 34.4509V34.6843C80.5428 34.7598 80.5276 34.8138 80.4976 34.8463C80.4675 34.879 80.4121 34.8951 80.332 34.8951H79.9177V35.2341C79.9177 35.6859 80.2213 35.9118 80.8288 35.9118C81.0898 35.9118 81.297 35.8654 81.4503 35.7723C81.6033 35.6797 81.7123 35.5327 81.7777 35.3319C81.8428 35.1312 81.8757 34.8576 81.8757 34.5111C81.8757 34.0342 81.7815 33.6892 81.5932 33.4758C81.405 33.2625 81.0849 33.1558 80.6331 33.1558C80.2063 33.1558 79.8298 33.2335 79.5036 33.3892C79.4535 33.4143 79.4181 33.4267 79.3981 33.4267C79.3579 33.4267 79.3203 33.3942 79.2852 33.3289L79.0969 32.9826C79.077 32.9475 79.0668 32.9122 79.0668 32.8771C79.0668 32.8369 79.0944 32.7993 79.1497 32.764C79.5564 32.5483 80.101 32.4405 80.7837 32.4405C81.4716 32.4405 81.9849 32.6073 82.3236 32.941C82.6626 33.2751 82.8319 33.7984 82.8319 34.5111C82.8319 35.2291 82.6626 35.76 82.3236 36.1036C81.9849 36.4477 81.4965 36.6196 80.859 36.6196C80.2615 36.6196 79.8111 36.4966 79.5073 36.2506Z"/>
</mask>
<path d="M79.5073 36.2506C79.2036 36.0048 79.0518 35.6407 79.0518 35.1586V34.4809C79.0518 34.4008 79.0707 34.3405 79.1082 34.3003C79.146 34.2601 79.21 34.2402 79.3003 34.2402H80.3394C80.4147 34.2402 80.4675 34.2564 80.4976 34.2891C80.5276 34.3218 80.5428 34.3756 80.5428 34.4509V34.6843C80.5428 34.7598 80.5276 34.8138 80.4976 34.8463C80.4675 34.879 80.4121 34.8951 80.332 34.8951H79.9177V35.2341C79.9177 35.6859 80.2213 35.9118 80.8288 35.9118C81.0898 35.9118 81.297 35.8654 81.4503 35.7723C81.6033 35.6797 81.7123 35.5327 81.7777 35.3319C81.8428 35.1312 81.8757 34.8576 81.8757 34.5111C81.8757 34.0342 81.7815 33.6892 81.5932 33.4758C81.405 33.2625 81.0849 33.1558 80.6331 33.1558C80.2063 33.1558 79.8298 33.2335 79.5036 33.3892C79.4535 33.4143 79.4181 33.4267 79.3981 33.4267C79.3579 33.4267 79.3203 33.3942 79.2852 33.3289L79.0969 32.9826C79.077 32.9475 79.0668 32.9122 79.0668 32.8771C79.0668 32.8369 79.0944 32.7993 79.1497 32.764C79.5564 32.5483 80.101 32.4405 80.7837 32.4405C81.4716 32.4405 81.9849 32.6073 82.3236 32.941C82.6626 33.2751 82.8319 33.7984 82.8319 34.5111C82.8319 35.2291 82.6626 35.76 82.3236 36.1036C81.9849 36.4477 81.4965 36.6196 80.859 36.6196C80.2615 36.6196 79.8111 36.4966 79.5073 36.2506Z" fill="#1B010A"/>
<path d="M79.5073 36.2506L80.1364 35.4733L80.1367 35.4735L79.5073 36.2506ZM79.1082 34.3003L78.3769 33.6182L78.3796 33.6153L79.1082 34.3003ZM80.4976 34.2891L81.2328 33.6112L81.2345 33.613L80.4976 34.2891ZM80.4976 34.8463L81.2329 35.524L81.2328 35.5242L80.4976 34.8463ZM79.9177 34.8951H78.9177V33.8951H79.9177V34.8951ZM81.4503 35.7723L80.931 34.9177L80.9327 34.9166L81.4503 35.7723ZM81.7777 35.3319L82.7289 35.6404L82.7286 35.6415L81.7777 35.3319ZM81.5932 33.4758L82.343 32.8141L82.3432 32.8143L81.5932 33.4758ZM79.5036 33.3892L79.0563 32.4948L79.0646 32.4907L79.0729 32.4867L79.5036 33.3892ZM79.2852 33.3289L80.1638 32.8514L80.1658 32.8552L79.2852 33.3289ZM79.0969 32.9826L79.9663 32.4884L79.971 32.4967L79.9755 32.505L79.0969 32.9826ZM79.1497 32.764L78.6125 31.9206L78.646 31.8992L78.6811 31.8806L79.1497 32.764ZM82.3236 32.941L83.0254 32.2287L83.0254 32.2287L82.3236 32.941ZM82.8319 34.5111H81.8319H82.8319ZM82.3236 36.1036L81.6109 35.4021L81.6117 35.4014L82.3236 36.1036ZM79.5073 36.2506L78.8782 37.0279C78.2855 36.5482 78.0518 35.8648 78.0518 35.1586H79.0518H80.0518C80.0518 35.4166 80.1217 35.4614 80.1364 35.4733L79.5073 36.2506ZM79.0518 35.1586H78.0518V34.4809H79.0518H80.0518V35.1586H79.0518ZM79.0518 34.4809H78.0518C78.0518 34.2608 78.1025 33.9124 78.3769 33.6182L79.1082 34.3003L79.8394 34.9825C80.0388 34.7687 80.0518 34.5409 80.0518 34.4809H79.0518ZM79.1082 34.3003L78.3796 33.6153C78.6981 33.2766 79.105 33.2402 79.3003 33.2402V34.2402V35.2402C79.3234 35.2402 79.3913 35.2383 79.4829 35.2096C79.5794 35.1795 79.7146 35.1152 79.8367 34.9854L79.1082 34.3003ZM79.3003 34.2402V33.2402H80.3394V34.2402V35.2402H79.3003V34.2402ZM80.3394 34.2402V33.2402C80.5072 33.2402 80.9159 33.2675 81.2328 33.6112L80.4976 34.2891L79.7624 34.9669C79.8931 35.1087 80.0393 35.1767 80.1407 35.2079C80.2377 35.2379 80.3112 35.2402 80.3394 35.2402V34.2402ZM80.4976 34.2891L81.2345 33.613C81.5169 33.9208 81.5428 34.284 81.5428 34.4509H80.5428H79.5428C79.5428 34.4756 79.5447 34.5387 79.5684 34.6233C79.5926 34.7099 79.6456 34.8397 79.7607 34.9651L80.4976 34.2891ZM80.5428 34.4509H81.5428V34.6843H80.5428H79.5428V34.4509H80.5428ZM80.5428 34.6843H81.5428C81.5428 34.8495 81.5176 35.2152 81.2329 35.524L80.4976 34.8463L79.7623 34.1686C79.6456 34.2952 79.5924 34.4262 79.5683 34.5125C79.5447 34.597 79.5428 34.6599 79.5428 34.6843H80.5428ZM80.4976 34.8463L81.2328 35.5242C80.906 35.8786 80.479 35.8951 80.332 35.8951V34.8951V33.8951C80.312 33.8951 80.2444 33.8963 80.1521 33.9234C80.0573 33.9512 79.9022 34.0169 79.7624 34.1685L80.4976 34.8463ZM80.332 34.8951V35.8951H79.9177V34.8951V33.8951H80.332V34.8951ZM79.9177 34.8951H80.9177V35.2341H79.9177H78.9177V34.8951H79.9177ZM79.9177 35.2341H80.9177C80.9177 35.236 80.918 35.1903 80.8872 35.1217C80.8539 35.0473 80.8008 34.9835 80.7423 34.94C80.6896 34.9008 80.6557 34.8951 80.6708 34.8988C80.6869 34.9028 80.7357 34.9118 80.8288 34.9118V35.9118V36.9118C80.4302 36.9118 79.9493 36.8428 79.5486 36.5447C79.0923 36.2053 78.9177 35.707 78.9177 35.2341H79.9177ZM80.8288 35.9118V34.9118C80.9019 34.9118 80.9436 34.9051 80.9611 34.9012C80.9777 34.8975 80.9626 34.8985 80.931 34.9177L81.4503 35.7723L81.9695 36.6269C81.6036 36.8492 81.1937 36.9118 80.8288 36.9118V35.9118ZM81.4503 35.7723L80.9327 34.9166C80.8954 34.9392 80.8649 34.9683 80.8442 34.9962C80.8249 35.0222 80.8225 35.0355 80.8268 35.0223L81.7777 35.3319L82.7286 35.6415C82.6035 36.0257 82.363 36.3889 81.9678 36.6279L81.4503 35.7723ZM81.7777 35.3319L80.8265 35.0233C80.8454 34.9651 80.8757 34.8101 80.8757 34.5111H81.8757H82.8757C82.8757 34.9051 82.8402 35.2973 82.7289 35.6404L81.7777 35.3319ZM81.8757 34.5111H80.8757C80.8757 34.3341 80.8577 34.2216 80.8403 34.1579C80.8234 34.096 80.8138 34.1038 80.8432 34.1372L81.5932 33.4758L82.3432 32.8143C82.7707 33.2991 82.8757 33.9428 82.8757 34.5111H81.8757ZM81.5932 33.4758L80.8434 34.1375C80.8861 34.1858 80.9198 34.1925 80.8958 34.1845C80.8657 34.1745 80.7856 34.1558 80.6331 34.1558V33.1558V32.1558C81.2056 32.1558 81.8773 32.2865 82.343 32.8141L81.5932 33.4758ZM80.6331 33.1558V34.1558C80.3284 34.1558 80.1036 34.2109 79.9343 34.2917L79.5036 33.3892L79.0729 32.4867C79.556 32.2562 80.0842 32.1558 80.6331 32.1558V33.1558ZM79.5036 33.3892L79.9508 34.2837C79.9044 34.3068 79.8433 34.3352 79.7738 34.3599C79.7244 34.3774 79.5812 34.4267 79.3981 34.4267V33.4267V32.4267C79.3055 32.4267 79.2339 32.4403 79.1958 32.4489C79.1543 32.4583 79.1231 32.4686 79.1053 32.4749C79.071 32.4871 79.0526 32.4967 79.0563 32.4948L79.5036 33.3892ZM79.3981 33.4267V34.4267C78.7593 34.4267 78.4672 33.9192 78.4045 33.8027L79.2852 33.3289L80.1658 32.8552C80.1511 32.8279 80.1005 32.7383 79.9942 32.6462C79.876 32.5439 79.6716 32.4267 79.3981 32.4267V33.4267ZM79.2852 33.3289L78.4066 33.8065L78.2183 33.4601L79.0969 32.9826L79.9755 32.505L80.1638 32.8514L79.2852 33.3289ZM79.0969 32.9826L78.2275 33.4767C78.1367 33.317 78.0668 33.1131 78.0668 32.8771H79.0668H80.0668C80.0668 32.7113 80.0172 32.578 79.9663 32.4884L79.0969 32.9826ZM79.0668 32.8771H78.0668C78.0668 32.3204 78.4563 32.02 78.6125 31.9206L79.1497 32.764L79.6869 33.6075C79.7324 33.5785 80.0668 33.3535 80.0668 32.8771H79.0668ZM79.1497 32.764L78.6811 31.8806C79.2851 31.5603 80.0105 31.4405 80.7837 31.4405V32.4405V33.4405C80.1915 33.4405 79.8276 33.5364 79.6183 33.6474L79.1497 32.764ZM80.7837 32.4405V31.4405C81.6168 31.4405 82.43 31.642 83.0254 32.2287L82.3236 32.941L81.6217 33.6533C81.5397 33.5726 81.3263 33.4405 80.7837 33.4405V32.4405ZM82.3236 32.941L83.0254 32.2287C83.6323 32.8267 83.8319 33.6629 83.8319 34.5111H82.8319H81.8319C81.8319 33.934 81.6928 33.7234 81.6217 33.6533L82.3236 32.941ZM82.8319 34.5111H83.8319C83.8319 35.365 83.6323 36.2008 83.0355 36.8059L82.3236 36.1036L81.6117 35.4014C81.6928 35.3191 81.8319 35.0933 81.8319 34.5111H82.8319ZM82.3236 36.1036L83.0362 36.8051C82.4549 37.3958 81.6748 37.6196 80.859 37.6196V36.6196V35.6196C81.3181 35.6196 81.5149 35.4997 81.6109 35.4021L82.3236 36.1036ZM80.859 36.6196V37.6196C80.1476 37.6196 79.4324 37.4768 78.8779 37.0277L79.5073 36.2506L80.1367 35.4735C80.1897 35.5165 80.3754 35.6196 80.859 35.6196V36.6196Z" fill="black" mask="url(#path-53-inside-1_1484_9806)"/>
</g>
<path d="M83.6376 36.439C83.5925 36.3939 83.5698 36.3261 83.5698 36.2358V32.8095C83.5698 32.7243 83.5874 32.6602 83.6226 32.6176C83.6576 32.575 83.7179 32.5536 83.8032 32.5536H84.1799C84.2501 32.5536 84.3015 32.5686 84.3342 32.5986C84.3668 32.6289 84.3831 32.6766 84.3831 32.7417V33.043C84.7194 32.6413 85.2065 32.4406 85.844 32.4406C86.2857 32.4406 86.6409 32.5636 86.9094 32.8095C87.1779 33.0555 87.3125 33.4095 87.3125 33.8712V36.2358C87.3125 36.3261 87.291 36.3939 87.2484 36.439C87.2057 36.4843 87.1341 36.5068 87.0336 36.5068H86.6346C86.5341 36.5068 86.4615 36.4843 86.4162 36.439C86.3711 36.3939 86.3486 36.3261 86.3486 36.2358V33.8862C86.3486 33.6301 86.2845 33.442 86.1564 33.3216C86.0285 33.2011 85.8314 33.1408 85.5654 33.1408C85.3745 33.1408 85.2002 33.1785 85.0421 33.2538C84.8838 33.3291 84.7596 33.4282 84.6692 33.5512C84.5789 33.6744 84.5337 33.801 84.5337 33.9315V36.2358C84.5337 36.3261 84.5123 36.3939 84.4697 36.439C84.4269 36.4843 84.353 36.5068 84.2475 36.5068H83.856C83.7554 36.5068 83.6828 36.4843 83.6376 36.439Z" fill="#1B010A"/>
</g>
<defs>
<clipPath id="clip0_1484_9806">
<rect width="150" height="60" fill="white" transform="translate(0.0065918)"/>
</clipPath>
</defs>
</svg>
