<?xml version="1.0" encoding="UTF-8"?>
<svg id="Layer_2" data-name="Layer 2" xmlns="http://www.w3.org/2000/svg" viewBox="0 0 634.19 146.12">
  <defs>
    <style>
      .cls-1 {
        opacity: .3;
      }

      .cls-1, .cls-2 {
        fill: #fff;
        stroke-width: 0px;
      }
    </style>
  </defs>
  <g id="Layer_1-2" data-name="Layer 1">
    <g>
      <g>
        <path class="cls-2" d="M178.03,50.75c2.95,0,5.58.36,7.92,1.08,2.31.72,4.28,1.76,5.9,3.13,1.6,1.37,2.83,3.04,3.67,5.01s1.26,4.19,1.26,6.67c0,1.78-.26,3.51-.79,5.18-.51,1.67-1.28,3.2-2.27,4.57-.99,1.39-2.21,2.58-3.65,3.61-1.45,1-3.09,1.76-4.94,2.25,1.19.45,2.21,1.09,3.07,1.91s1.58,1.69,2.17,2.61c.57.92,1.04,1.84,1.37,2.77.35.92.6,1.7.79,2.34l2.46,8.97c.31,1.09.59,2.09.86,3.01.27.92.55,1.78.87,2.58s.68,1.57,1.09,2.28c.39.74.89,1.43,1.49,2.11h-9.31c-.29-.35-.56-.84-.83-1.48s-.53-1.34-.8-2.12-.53-1.61-.79-2.49c-.26-.88-.5-1.75-.75-2.61l-2.61-8.97c-.31-1.04-.68-2.04-1.09-2.98-.43-.94-1.02-1.77-1.8-2.49-.78-.72-1.79-1.28-3.03-1.71-1.24-.41-2.81-.62-4.71-.62h-15.43v25.48h-8.57v-60.08h28.46ZM174.38,78.35c1.78,0,3.5-.15,5.18-.48,1.66-.31,3.14-.87,4.44-1.68s2.33-1.9,3.08-3.26c.78-1.36,1.16-3.09,1.16-5.18,0-1.43-.22-2.75-.62-3.95-.43-1.19-1.08-2.21-1.96-3.07-.88-.84-2-1.51-3.33-1.98-1.35-.47-2.95-.71-4.81-.71h-19.36v20.31h16.23Z"/>
        <path class="cls-2" d="M216.66,93.47l-6.64,17.36h-8.97l23.51-60.08h9.59l23.51,60.08h-8.97l-6.64-17.36h-25.38ZM229.41,59.63l-10.11,26.83h20.1l-9.99-26.83Z"/>
        <path class="cls-2" d="M263.28,58.84v-9.43h7.77v9.43h-7.77ZM271.21,66.15v44.68h-7.81v-44.68h7.81Z"/>
        <path class="cls-2" d="M322.62,110.83l-30.39-48.49v48.49h-8.57v-60.08h9.22l30.82,48.86v-48.86h8.54v60.08h-9.62Z"/>
        <path class="cls-2" d="M356.24,50.75l19.64,49.26,19.67-49.26h10.66v60.08h-8.57v-47.45l-18.87,47.45h-5.75l-18.87-47.45v47.45h-8.57v-60.08h10.66Z"/>
        <path class="cls-2" d="M428.11,93.47l-6.64,17.36h-8.97l23.51-60.08h9.59l23.51,60.08h-8.97l-6.64-17.36h-25.38ZM440.87,59.63l-10.11,26.83h20.1l-9.99-26.83Z"/>
        <path class="cls-2" d="M484.04,50.75v28.79l30.21-28.79h10.94l-24.92,23.14,25.94,36.94h-10.97l-20.96-31.31-10.23,9.53v21.79h-8.57v-60.08h8.57Z"/>
        <path class="cls-2" d="M574.51,50.75v7.28h-33.59v18.01h29.96v7.28h-29.96v20.34h33.71v7.16h-42.28v-60.08h42.16Z"/>
        <path class="cls-2" d="M612.92,50.75c2.95,0,5.58.36,7.92,1.08,2.31.72,4.28,1.76,5.9,3.13,1.6,1.37,2.83,3.04,3.67,5.01s1.26,4.19,1.26,6.67c0,1.78-.26,3.51-.79,5.18-.51,1.67-1.28,3.2-2.27,4.57-.99,1.39-2.21,2.58-3.65,3.61-1.45,1-3.09,1.76-4.94,2.25,1.19.45,2.21,1.09,3.07,1.91.86.82,1.58,1.69,2.17,2.61.57.92,1.04,1.84,1.37,2.77.35.92.6,1.7.79,2.34l2.46,8.97c.31,1.09.59,2.09.86,3.01s.55,1.78.87,2.58.68,1.57,1.09,2.28c.39.74.89,1.43,1.49,2.11h-9.31c-.29-.35-.56-.84-.83-1.48s-.53-1.34-.8-2.12-.53-1.61-.79-2.49-.5-1.75-.75-2.61l-2.61-8.97c-.31-1.04-.68-2.04-1.09-2.98-.43-.94-1.02-1.77-1.8-2.49s-1.79-1.28-3.03-1.71c-1.24-.41-2.81-.62-4.71-.62h-15.43v25.48h-8.57v-60.08h28.46ZM609.27,78.35c1.78,0,3.5-.15,5.18-.48,1.66-.31,3.14-.87,4.44-1.68s2.33-1.9,3.08-3.26c.78-1.36,1.16-3.09,1.16-5.18,0-1.43-.22-2.75-.62-3.95-.43-1.19-1.08-2.21-1.96-3.07-.88-.84-2-1.51-3.33-1.98-1.35-.47-2.95-.71-4.81-.71h-19.36v20.31h16.23Z"/>
      </g>
      <g>
        <g>
          <polygon class="cls-2" points="61.95 0 0 42.08 0 83.44 0 124.22 31.98 146.12 31.98 61.72 61.95 41.36 91.92 61.72 120.67 44.25 61.95 0"/>
          <polygon class="cls-2" points="62.29 125.36 92.26 145.72 121.01 128.25 62.29 84 62.29 125.36"/>
        </g>
        <polygon class="cls-1" points="91.65 106.13 120.67 84 120.67 128.25 91.65 106.13"/>
      </g>
    </g>
  </g>
</svg>