<svg width="186" height="56" viewBox="0 0 186 56" fill="none" xmlns="http://www.w3.org/2000/svg">
<path d="M4 33.6263V33.2733L6.22512 32.8674V33.2733C6.22512 34.9792 7.44688 35.9263 9.5392 35.9263C11.6315 35.9263 12.9595 35.0321 12.9595 33.0027C12.9595 30.7821 11.6551 29.9439 8.80438 28.3763C5.9005 26.7821 4.18887 25.4557 4.18887 22.6145C4.18887 19.7734 6.38743 18.041 9.48313 18.041C12.5788 18.041 14.6416 19.6645 14.6416 22.1822V22.3734L12.4165 22.8322V22.6145C12.4165 21.0734 11.2774 20.0969 9.45657 20.0969C7.63575 20.0969 6.4435 20.9351 6.4435 22.5587C6.4435 24.3998 7.58263 25.1292 10.0822 26.5351C13.1248 28.241 15.2142 29.4586 15.2142 32.9204C15.2142 36.141 13.1248 37.9527 9.5392 37.9527C5.95362 37.9527 4 36.3057 4 33.6263Z" fill="white"/>
<path d="M20.8984 18.041H31.003V20.1057H23.1944V26.4645H30.64V28.5292H23.1944V35.9204H31.0591V37.9851H20.8984V18.041Z" fill="white"/>
<path d="M36.7891 18.041H46.8936V20.1057H39.085V26.4645H46.5306V28.5292H39.085V35.9204H46.9497V37.9851H36.7891V18.041Z" fill="white"/>
<path d="M52.6846 18.041H57.1614C61.8359 18.041 64.6896 20.4675 64.6896 28.0263C64.6896 35.5851 61.6942 37.9851 57.0197 37.9851H52.6816V18.041H52.6846ZM57.0492 35.8939C60.1567 35.8939 62.3405 34.3027 62.3405 28.0263C62.3405 21.7498 60.2423 20.1322 57.1909 20.1322H54.9805V35.8939H57.0522H57.0492Z" fill="white"/>
<path d="M106.396 18.041H108.775L111.714 32.1292C111.909 33.1057 112.218 34.8057 112.357 35.7821H112.413C112.608 34.7233 112.974 32.491 113.423 30.3145L116.081 18.041H118.994L121.933 30.3145C122.409 32.491 122.801 34.4704 123.025 35.7821H123.081C123.276 34.5263 123.53 32.9645 123.81 31.541L126.581 18.041H128.904L124.454 37.9851H121.571L118.295 24.3733C117.988 23.0351 117.708 21.3322 117.566 20.5792H117.51C117.398 21.2763 117.117 23.0616 116.837 24.4292L113.871 37.9851H110.932L106.399 18.041H106.396Z" fill="white"/>
<path d="M133.934 18.041H144.038V20.1057H136.23V26.4645H143.675V28.5292H136.23V35.9204H144.094V37.9851H133.934V18.041Z" fill="white"/>
<path d="M149.828 18.041H155.426C158.923 18.041 160.688 19.741 160.688 23.0057C160.688 25.0969 160.157 26.6321 158.336 27.4969C160.52 28.3057 161.388 30.0086 161.388 32.4351C161.388 35.8645 159.85 37.9851 155.621 37.9851H149.828V18.041ZM155.483 26.5763C157.415 26.5763 158.366 25.4321 158.366 23.3116C158.366 21.0528 157.386 20.0763 155.314 20.0763H152.095V26.5763H155.483ZM155.595 35.9204C157.973 35.9204 159.036 34.8057 159.036 32.2674C159.036 29.7292 157.719 28.5851 155.509 28.5851H152.095V35.9204H155.595Z" fill="white"/>
<path d="M166.327 33.6441V33.2912L168.561 32.8853V33.2912C168.561 35 169.785 35.95 171.884 35.95C173.982 35.95 175.313 35.0529 175.313 33.0176C175.313 30.7912 174.006 29.95 171.146 28.3765C168.233 26.7765 166.516 25.4441 166.516 22.597C166.516 19.75 168.723 18.0117 171.825 18.0117C174.926 18.0117 176.998 19.6411 176.998 22.1647V22.3558L174.764 22.8176V22.6C174.764 21.0529 173.619 20.0764 171.795 20.0764C169.971 20.0764 168.773 20.9176 168.773 22.547C168.773 24.3912 169.918 25.1265 172.421 26.5353C175.472 28.2441 177.567 29.4676 177.567 32.9412C177.567 36.1706 175.472 37.9882 171.878 37.9882C168.283 37.9882 166.324 36.3323 166.324 33.6471L166.327 33.6441Z" fill="white"/>
<path d="M88.18 13.1173C78.641 11.9173 70.0373 20.0026 71.4668 30.2938C71.6374 31.5291 71.9816 32.7409 72.4875 33.8791C74.7348 38.9438 79.2175 42.2232 84.4444 42.8791C85.0798 42.9585 85.7122 42.9997 86.3417 42.9997C89.6537 42.9997 92.8569 41.9085 95.513 39.8438C97.2779 38.4732 98.6692 36.7585 99.6546 34.8262C99.6604 34.8203 99.6663 34.8144 99.6722 34.8085H99.6663C100.443 33.2791 100.972 31.6203 101.193 29.8703C102.222 21.6644 96.3837 14.1526 88.1771 13.1203L88.18 13.1173ZM87.8212 14.8997C93.0246 15.5997 97.4897 19.1614 98.9457 24.2026C99.3869 25.7291 99.5751 27.3291 99.4663 28.9173C99.3781 30.182 99.2016 32.0085 98.3986 33.0468C98.0691 33.4732 97.5367 33.732 96.9955 33.7026C95.6042 33.6291 93.5599 33.2115 92.5069 32.1585C91.8715 31.5232 92.0657 30.6938 92.4686 29.285C92.904 27.7644 93.4423 25.8732 92.1657 24.0379C90.542 21.7056 88.283 21.7291 86.6358 21.7408C85.9093 21.7467 85.1533 21.7791 84.4856 21.4467C82.6384 20.5232 82.9237 18.1791 83.3826 16.5232C83.5502 15.9261 83.8826 15.2526 84.468 14.9703C85.4592 14.4879 86.7593 14.7556 87.8212 14.8967V14.8997ZM74.2524 33.3615C73.7523 32.2762 73.4141 31.1144 73.2552 29.9291C72.6993 25.7938 73.9965 22.0938 76.3555 19.3791C76.5232 19.185 76.8408 19.3467 76.7732 19.5938C76.1673 21.8703 76.0114 24.3938 76.6967 26.6879C77.4585 29.2379 79.2057 31.185 81.7442 32.3144C84.4327 33.5115 85.8622 35.1409 85.8857 37.0291C85.8975 38.1203 85.4416 39.1115 84.8003 39.8556C84.1591 40.5997 83.1767 40.8291 82.2737 40.5409C78.7939 39.432 75.8878 36.9144 74.2524 33.3585V33.3615ZM94.4041 38.4085C92.1363 40.1703 89.4213 41.1232 86.6005 41.1762C86.3858 41.1791 86.2711 40.9262 86.4034 40.7556C87.227 39.6791 87.7182 38.3468 87.7035 37.0115C87.6859 35.4997 86.9858 32.6644 82.4854 30.6585C80.4147 29.735 79.0528 28.2262 78.438 26.1673C78.0645 24.9232 77.9909 23.6026 78.1174 22.3144C78.2174 21.2967 78.441 20.2967 78.7145 19.3144C78.9616 18.4203 79.2734 17.5526 79.8558 16.8173C80.2558 16.3085 80.8206 15.9909 81.4177 15.7614C81.4883 15.735 81.5618 15.7085 81.6354 15.7467C81.656 15.7556 81.6736 15.7703 81.6854 15.7879C81.7118 15.832 81.6854 15.8909 81.6736 15.935C81.656 15.9967 81.6383 16.0585 81.6207 16.1232C81.5883 16.2438 81.5559 16.3673 81.5236 16.4908C81.4648 16.7261 81.4148 16.9614 81.3706 17.1997C81.2912 17.632 81.2353 18.0703 81.2147 18.5085C81.1971 18.8997 81.2118 19.2938 81.2647 19.682C81.3147 20.035 81.3971 20.385 81.5206 20.7203C81.5471 20.7909 81.5736 20.8585 81.603 20.9261C82.0619 22.0026 82.9002 22.7879 84.0973 23.2615C84.8945 23.5762 85.7887 23.5673 86.6564 23.5585C88.2418 23.5468 89.6037 23.532 90.6803 25.0791C91.4656 26.2056 91.1215 27.4026 90.7273 28.7909C90.2949 30.3056 89.8037 32.0232 91.2274 33.4438C92.5539 34.7732 94.8512 35.3791 96.6661 35.5026C96.872 35.5173 96.9867 35.7526 96.8631 35.9173C96.169 36.8409 95.3483 37.682 94.41 38.4115L94.4041 38.4085Z" fill="white"/>
</svg>
