<?xml version="1.0" encoding="UTF-8"?>
<svg id="Layer_1" xmlns="http://www.w3.org/2000/svg" xmlns:xlink="http://www.w3.org/1999/xlink" version="1.1" viewBox="0 0 1920 1920">
  <!-- Generator: Adobe Illustrator 29.5.1, SVG Export Plug-In . SVG Version: 2.1.0 Build 141)  -->
  <defs>
    <style>
      .st0 {
        fill: #ffffff;
      }

      .st1 {
        fill: #ffffff;
      }
    </style>
  </defs>
  <g>
    <path class="st1" d="M613.87,1020.27c6.96,2.53,14.24,4.75,21.83,6.64,7.59,1.9,16.87,2.85,27.84,2.85,17.29,0,30.21-3.53,38.75-10.6,8.54-7.06,12.81-16.61,12.81-28.63,0-5.9-.9-10.96-2.69-15.18-1.79-4.22-4.48-7.85-8.07-10.91-3.59-3.05-8.07-5.85-13.44-8.38-5.38-2.53-11.66-5.27-18.82-8.23l-18.03-7.28c-6.12-2.53-11.7-5.32-16.77-8.38-5.06-3.05-9.44-6.8-13.13-11.23-3.69-4.43-6.59-9.54-8.7-15.34-2.11-5.8-3.16-12.7-3.16-20.72,0-19.19,6.53-34.22,19.61-45.08,13.07-10.86,31.42-16.29,55.05-16.29,10.12,0,19.72.85,28.79,2.53,9.07,1.69,17.08,3.8,24.04,6.33-1.06,8.86-3.38,17.61-6.96,26.26-5.69-2.11-12.29-4-19.77-5.69-7.49-1.69-15.98-2.53-25.47-2.53-13.29,0-23.52,2.69-30.69,8.07-7.17,5.38-10.76,13.45-10.76,24.2,0,4.43.89,8.38,2.69,11.86,1.79,3.48,4.16,6.54,7.12,9.17,2.95,2.64,6.43,5.01,10.44,7.12,4,2.11,8.23,4.01,12.65,5.69l17.72,6.96c8.43,3.38,15.92,6.91,22.46,10.6,6.53,3.69,12.12,8.02,16.77,12.97,4.64,4.96,8.17,10.81,10.6,17.56,2.42,6.75,3.64,14.66,3.64,23.73,0,21.72-7.49,38.86-22.46,51.41-14.98,12.55-35.96,18.82-62.95,18.82-6.54,0-12.45-.21-17.72-.63-5.27-.42-10.18-1.06-14.71-1.9-4.54-.85-8.91-1.9-13.13-3.16-4.22-1.27-8.54-2.63-12.97-4.11.42-4.64,1.37-9.38,2.85-14.24,1.47-4.85,3.05-9.59,4.75-14.24Z"/>
    <path class="st1" d="M788.18,822.86c2.32-.42,4.9-.74,7.75-.95,2.85-.21,5.43-.32,7.75-.32s4.95.11,7.91.32c2.95.21,5.59.53,7.91.95v231.89c-2.32.42-4.96.74-7.91.95-2.96.21-5.59.32-7.91.32s-4.9-.11-7.75-.32c-2.85-.21-5.43-.53-7.75-.95v-231.89ZM828.04,970.6l51.57-78.14c2.74-.42,5.48-.74,8.22-.95,2.74-.21,5.58-.32,8.54-.32,3.16,0,6.17.11,9.01.32,2.85.21,5.74.53,8.7.95l-51.57,75.92,60.42,86.36c-2.96.42-5.8.74-8.54.95-2.74.21-5.59.32-8.54.32s-5.91-.11-8.86-.32c-2.96-.21-5.91-.53-8.86-.95l-60.11-84.15Z"/>
    <path class="st1" d="M961.54,917.14h-20.56c-.43-1.69-.74-3.64-.95-5.85-.21-2.21-.32-4.37-.32-6.49s.1-4.27.32-6.49c.21-2.21.52-4.16.95-5.85h51.25v162.29c-2.32.42-4.9.74-7.75.95-2.85.21-5.43.32-7.75.32-2.11,0-4.59-.11-7.43-.32-2.85-.21-5.43-.53-7.75-.95v-137.61ZM954.58,856.71c-.42-2.53-.69-5.27-.79-8.22-.11-2.95-.16-5.59-.16-7.91s.05-4.95.16-7.91c.1-2.95.37-5.59.79-7.91,2.74-.42,5.69-.74,8.86-.95,3.16-.21,5.9-.32,8.23-.32s5.06.11,8.22.32c3.16.21,6.01.53,8.54.95.42,2.32.68,4.96.79,7.91.1,2.96.16,5.59.16,7.91s-.05,4.96-.16,7.91c-.11,2.96-.37,5.69-.79,8.22-2.53.43-5.33.74-8.38.95-3.06.21-5.75.32-8.07.32-2.53,0-5.38-.1-8.54-.32-3.16-.21-6.12-.52-8.86-.95Z"/>
    <path class="st1" d="M1042.52,822.86c2.32-.42,4.9-.74,7.75-.95,2.85-.21,5.43-.32,7.75-.32s4.9.11,7.75.32c2.85.21,5.43.53,7.75.95v182.85c0,5.91.52,10.55,1.58,13.92,1.05,3.38,2.48,5.96,4.27,7.75,1.79,1.79,3.9,2.96,6.33,3.48,2.42.53,5.01.79,7.75.79,1.9,0,4.06-.1,6.48-.32,2.42-.21,4.48-.52,6.17-.95,1.9,7.38,2.85,15.4,2.85,24.04-2.96,1.05-6.54,1.74-10.76,2.06-4.22.32-8.12.47-11.7.47-6.12,0-11.81-.74-17.08-2.21-5.27-1.47-9.92-3.9-13.92-7.28-4.01-3.37-7.17-7.91-9.49-13.6-2.32-5.69-3.48-12.76-3.48-21.2v-189.81Z"/>
    <path class="st1" d="M1136.79,822.86c2.32-.42,4.9-.74,7.75-.95,2.85-.21,5.43-.32,7.75-.32s4.9.11,7.75.32c2.85.21,5.43.53,7.75.95v182.85c0,5.91.52,10.55,1.58,13.92,1.05,3.38,2.48,5.96,4.27,7.75,1.79,1.79,3.9,2.96,6.33,3.48,2.42.53,5.01.79,7.75.79,1.9,0,4.06-.1,6.48-.32,2.42-.21,4.48-.52,6.17-.95,1.9,7.38,2.85,15.4,2.85,24.04-2.96,1.05-6.54,1.74-10.76,2.06-4.22.32-8.12.47-11.7.47-6.12,0-11.81-.74-17.08-2.21-5.27-1.47-9.92-3.9-13.92-7.28-4.01-3.37-7.17-7.91-9.49-13.6-2.32-5.69-3.48-12.76-3.48-21.2v-189.81Z"/>
    <path class="st1" d="M1234.22,827.29c2.32-.42,4.8-.74,7.43-.95,2.63-.21,5.43-.32,8.38-.32,2.74,0,5.48.11,8.23.32,2.74.21,5.38.53,7.91.95v198.99h89.21c.42,2.32.68,4.75.79,7.28.1,2.53.16,4.85.16,6.96,0,5.06-.32,9.81-.95,14.24h-121.16v-227.46Z"/>
    <path class="st1" d="M1474.02,947.82c0-12.44-3.16-21.09-9.49-25.94-6.33-4.85-15.5-7.28-27.52-7.28-7.38,0-14.29.58-20.72,1.74-6.44,1.16-12.71,2.69-18.82,4.59-4.01-6.96-6.01-15.29-6.01-24.99,7.17-2.32,15.08-4.11,23.73-5.38,8.65-1.27,16.97-1.9,24.99-1.9,21.09,0,37.12,4.8,48.09,14.39,10.96,9.6,16.45,24.94,16.45,46.03v101.55c-7.38,1.69-16.35,3.43-26.89,5.22-10.55,1.79-21.31,2.69-32.27,2.69-10.34,0-19.67-.95-28-2.85-8.33-1.9-15.4-4.95-21.2-9.17-5.8-4.22-10.28-9.59-13.45-16.13-3.16-6.53-4.75-14.44-4.75-23.73s1.84-17.03,5.54-23.88c3.69-6.85,8.7-12.55,15.03-17.08,6.33-4.53,13.6-7.91,21.83-10.12,8.22-2.21,16.87-3.32,25.94-3.32,6.75,0,12.28.16,16.61.47,4.32.32,7.96.69,10.91,1.11v-6.01ZM1474.02,978.51c-3.16-.42-7.17-.84-12.02-1.27-4.85-.42-8.97-.63-12.34-.63-13.08,0-23.04,2.43-29.9,7.28-6.86,4.85-10.28,12.23-10.28,22.14,0,6.33,1.16,11.28,3.48,14.87,2.32,3.59,5.22,6.33,8.7,8.23,3.48,1.9,7.33,3.06,11.55,3.48,4.22.42,8.23.63,12.02.63,4.85,0,9.86-.26,15.03-.79,5.17-.52,9.75-1.31,13.76-2.37v-51.57Z"/>
    <path class="st1" d="M1551.84,892.46c2.32-.42,4.59-.74,6.8-.95,2.21-.21,4.48-.32,6.8-.32s4.48.11,6.49.32c2,.21,4.16.53,6.49.95.63,3.16,1.27,7.43,1.9,12.81.63,5.38.95,9.86.95,13.45,2.11-3.58,4.79-7.17,8.07-10.76,3.27-3.58,7.01-6.8,11.23-9.65,4.22-2.85,9.07-5.17,14.55-6.96,5.48-1.79,11.49-2.69,18.03-2.69,18.56,0,32.27,5.33,41.13,15.98,8.86,10.65,13.29,26.42,13.29,47.29v102.81c-2.32.42-4.96.74-7.91.95-2.96.21-5.59.32-7.91.32s-4.9-.11-7.75-.32c-2.85-.21-5.43-.53-7.75-.95v-94.27c0-14.97-2.32-25.99-6.96-33.06-4.64-7.06-12.02-10.6-22.14-10.6-5.91,0-11.5,1.06-16.77,3.16-5.27,2.11-9.92,5.38-13.92,9.81-4.01,4.43-7.23,10.18-9.65,17.24-2.43,7.07-3.64,15.56-3.64,25.47v82.25c-2.32.42-4.9.74-7.75.95-2.85.21-5.43.32-7.75.32s-4.96-.11-7.91-.32c-2.96-.21-5.59-.53-7.91-.95v-162.29Z"/>
    <path class="st1" d="M1758.1,981.36c.42,17.72,5.01,30.69,13.76,38.91,8.75,8.23,21.67,12.34,38.75,12.34,14.97,0,29.21-2.63,42.71-7.91,1.69,3.16,3.05,7.01,4.11,11.55,1.05,4.54,1.69,9.02,1.9,13.44-6.96,2.96-14.61,5.17-22.94,6.64-8.33,1.47-17.56,2.21-27.68,2.21-14.77,0-27.42-2.06-37.96-6.17-10.55-4.11-19.25-9.91-26.1-17.4-6.86-7.48-11.86-16.34-15.03-26.57-3.16-10.23-4.75-21.46-4.75-33.69s1.53-23.25,4.59-33.69c3.05-10.44,7.75-19.51,14.08-27.21,6.33-7.7,14.29-13.81,23.88-18.35,9.59-4.53,20.93-6.8,34.01-6.8,11.18,0,20.98,1.9,29.42,5.69,8.43,3.8,15.5,9.02,21.2,15.66,5.69,6.64,10.01,14.55,12.97,23.73,2.95,9.17,4.43,19.14,4.43,29.9,0,2.96-.11,6.06-.32,9.33-.21,3.27-.42,6.07-.63,8.38h-110.41ZM1838.45,957.95c0-5.9-.79-11.55-2.37-16.92-1.58-5.38-3.91-10.07-6.96-14.08-3.06-4-6.96-7.22-11.7-9.65-4.75-2.42-10.39-3.64-16.93-3.64-12.87,0-22.73,3.91-29.58,11.71-6.86,7.8-11.02,18.66-12.5,32.58h80.04Z"/>
  </g>
  <path class="st0" d="M314.42,996.71c-106.33,21.28-234.94-9.58-263.87-17.18l207.28-123.15c1.29,1.85,2.73,3.76,4.3,5.69,35.98,44.41,271.06,82.27,74.31,130.75-5.87.88-13.03,2.11-22.02,3.89ZM439.53,807.79c-190.69,17.36-78.67,66.07-17.08,96,61.56,29.85,75.34,87.89-2.03,121.06-40.6,17.39-98.45,31.32-143.4,40.49l128.79,194.61,136.91-450.64c-29.31-3.35-64.91-5-103.19-1.52ZM588.13,660.04l-1.67,1.06-168.15,99.92c54.58-3.68,108.78-2.96,139.71-2.04l29.49-97.08.62-1.85Z"/>
</svg>