<?xml version="1.0" encoding="UTF-8"?>
<svg id="Layer_2" data-name="Layer 2" xmlns="http://www.w3.org/2000/svg" viewBox="0 0 688.69 222.1">
  <defs>
    <style>
      .cls-1 {
        fill: #fff;
        stroke-width: 0px;
      }
    </style>
  </defs>
  <g id="Layer_1-2" data-name="Layer 1">
    <g>
      <g>
        <path class="cls-1" d="M448.26,71.3h-12c-.12,0-.23,0-.34,0h-.02c-.14,0-.27.02-.4.03,0,0-.01,0-.02,0-3.59.37-6.38,3.22-6.38,6.69,0,1.05.26,2.05.72,2.95,0,.01.02.03.02.04.13.25.28.49.44.73,0,0,0,0,0,.01.77,1.08,1.85,1.94,3.14,2.46.56.23,1.15.39,1.77.47h.01c.34.05.7.07,1.05.07.7,0,1.36-.11,2-.29h10.01c12.71,0,21.29,8.26,21.29,20v.2c0,11.75-8.58,19.81-21.29,19.81h-3.34v-16.08c0-1.01-.22-1.97-.6-2.84-.27-.61-.62-1.18-1.04-1.69-.02-.03-.05-.06-.08-.09-.79-.94-1.81-1.69-2.99-2.17-.1-.04-.21-.08-.31-.12-.03-.01-.05-.03-.09-.03-.16-.06-.32-.1-.48-.15-.16-.04-.32-.08-.48-.12-.59-.13-1.21-.21-1.85-.21-.13,0-.25,0-.38,0h-.03c-.15,0-.29.02-.44.03,0,0-.01,0-.02,0-3.97.4-7.05,3.56-7.05,7.39v29.26h19.17c22.2,0,37.53-14.5,37.53-33.18v-.18c0-18.68-15.33-33-37.53-33Z"/>
        <path class="cls-1" d="M336.71,54.68v-.02c-.01-.14-.03-.29-.03-.41v-.03c-.08-.65-.24-1.29-.47-1.89-1.08-2.77-3.79-4.75-6.95-4.75h-41.62c-1,0-1.97.21-2.85.58-.62.24-1.18.57-1.7.97-.01.02-.06.06-.08.08-.95.73-1.7,1.7-2.18,2.81-.05.09-.08.18-.13.29,0,.01-.01.02-.01.02-.01.03-.01.06-.02.07-.06.15-.1.31-.14.46-.06.14-.09.3-.13.45-.15.56-.23,1.14-.23,1.73,0,.15.01.25.01.37v.02c.01.14.03.29.03.41v.03c.08.65.24,1.29.47,1.89,1.08,2.77,3.79,4.75,6.95,4.75h41.62c1,0,1.97-.21,2.85-.58.62-.24,1.18-.57,1.7-.97.01-.02.06-.06.08-.08.95-.73,1.7-1.7,2.18-2.81.05-.09.08-.18.13-.29,0-.01.01-.02.01-.02.01-.03.01-.06.02-.07.06-.15.1-.31.14-.46.06-.14.09-.3.13-.45.15-.56.23-1.14.23-1.73,0-.15-.01-.25-.01-.37Z"/>
        <path class="cls-1" d="M578.65,71.3h-11.85c-.12,0-.22,0-.34.01h-.02c-.13.01-.26.02-.38.03h-.02c-3.55.37-6.3,3.22-6.3,6.69,0,1.06.26,2.05.72,2.94,0,.01.01.03.02.05.12.25.28.49.43.73h.01c.75,1.08,1.82,1.95,3.09,2.47.55.23,1.14.39,1.75.48h.01c.34.05.68.07,1.03.07.69,0,1.34-.11,1.98-.29h9.87c12.53,0,20.99,8.25,20.99,20.01v.19c0,11.74-8.46,19.8-20.99,19.8h-12c-3.57,0-6.53,2.59-6.89,5.92-.01.22-.02.45-.02.67s.01.46.02.67c.19,1.69,1.04,3.2,2.31,4.26,1.22,1.04,2.82,1.65,4.58,1.65h12c21.89,0,37.02-14.51,37.02-33.18v-.19c0-18.67-15.13-33-37.02-33Z"/>
        <path class="cls-1" d="M336.72,78.28c0-.99-.21-1.96-.58-2.85-.24-.6-.56-1.16-.97-1.69l-.08-.08c-.73-.95-1.69-1.7-2.81-2.18-.09-.05-.18-.09-.29-.13-.01,0-.02-.01-.02-.01-.03-.01-.06-.01-.07-.02-.15-.07-.31-.11-.45-.15-.15-.05-.31-.08-.46-.13-.56-.14-1.14-.22-1.73-.22-.14,0-.25.01-.37.01h-.01c-.15.01-.29.02-.42.03h-.02c-.11.01-.22.04-.34.06h0s-.17.03-.17.03c-.36.06-.71.15-1.05.27l-18.39,4.7c-.12.03-.22.06-.3.11h-.03c-.12.04-.24.07-.36.13-1.06.39-1.96,1.04-2.67,1.84-.71-.8-1.6-1.45-2.67-1.84-.11-.06-.23-.1-.36-.13h-.03c-.08-.06-.18-.09-.3-.12l-17.63-4.51c-.06-.03-.11-.06-.17-.08-.6-.23-1.24-.39-1.9-.47h-.03c-.13,0-.27-.02-.42-.04h-.02c-.11,0-.22,0-.36,0-.6,0-1.17.08-1.74.22-.15.04-.31.07-.45.12-.15.04-.31.08-.45.15-.01,0-.04,0-.07.02,0,0-.01.01-.02.01-.1.04-.2.07-.29.12-1.11.47-2.07,1.23-2.81,2.18-.02.02-.05.06-.07.08-.41.52-.74,1.08-.98,1.69-.37.88-.58,1.85-.58,2.85v59.07h14.93l28.6-29.88v-10.68h-23.68v11.04h5.1l-10.02,9.85v-31.17l9.71,2.48c.34.09.65.13.97.19h.03c.58.05,1.17.04,1.72-.05,1.29-.22,2.49-.8,3.47-1.67.19-.18.35-.35.51-.53.16.18.32.35.51.53.98.87,2.17,1.45,3.47,1.67.55.08,1.14.1,1.72.05h.03c.32-.07.62-.11.97-.2l9.95-2.55v43.45c0,.13.01.26.02.39,0,.13-.02.26-.02.39,0,4.12,3.34,7.46,7.46,7.46s7.46-3.34,7.46-7.46c0-.13-.01-.26-.02-.39,0-.13.02-.26.02-.39v-51.61Z"/>
        <path class="cls-1" d="M385.46,70.05c-7,0-13.07,1.3-17.95,3.93-8.58,4.57-13.55,13.22-13.55,26.02v37.36h14.93v.04l28.6-29.88v-10.68h-23.68v11.04h5.1l-9.14,8.99v-17.41c0-10.53,5.84-15.94,15.5-15.94s15.49,5.6,15.49,16.41v28.58c-.24.7-.37,1.43-.37,2.18s.14,1.48.37,2.19c.08.23.17.45.26.67.26.6.63,1.18,1.06,1.69l.08.08c.78.92,1.79,1.67,2.96,2.15.02.01.06.02.08.03.1.06.22.09.32.13.01,0,.02.01.02.01.02.01.06.01.07.02.16.07.33.11.49.15.16.05.33.09.49.13.6.14,1.23.22,1.88.22.15,0,.26-.01.39-.01h.02c.16-.01.31-.02.45-.03h.03c.71-.08,1.4-.24,2.05-.47.15-.05.29-.11.43-.17,2.77-1.18,4.71-3.78,4.71-6.78v-31.15c0-19.52-11.8-29.47-31.1-29.47Z"/>
        <path class="cls-1" d="M657.59,70.05c-7,0-13.07,1.3-17.95,3.93-8.58,4.57-13.55,13.22-13.55,26.02v37.36h14.93v.04l28.6-29.88v-10.68h-23.68v11.04h5.1l-9.14,8.99v-17.41c0-10.53,5.84-15.94,15.5-15.94s15.49,5.6,15.49,16.41v28.58c-.24.7-.37,1.43-.37,2.18s.14,1.48.37,2.19c.08.23.17.45.26.67.26.6.63,1.18,1.06,1.69l.08.08c.78.92,1.79,1.67,2.96,2.15.02.01.06.02.08.03.1.06.22.09.32.13.01,0,.02.01.02.01.02.01.06.01.07.02.16.07.33.11.49.15.16.05.33.09.49.13.6.14,1.23.22,1.88.22.15,0,.26-.01.39-.01h.02c.16-.01.31-.02.45-.03h.03c.71-.08,1.4-.24,2.05-.47.15-.05.29-.11.43-.17,2.77-1.18,4.71-3.78,4.71-6.78v-31.15c0-19.52-11.8-29.47-31.1-29.47Z"/>
        <path class="cls-1" d="M313.14,88.66s-7.61,2.58-16.01,0l8.12-3.29,7.88,3.29Z"/>
        <path class="cls-1" d="M492.47,128.71l7.73-10.21c8.3,5.36,17.03,8.1,24.76,8.1s11.73-2.74,11.73-7.1v-.25c0-5.11-8.01-6.85-16.89-9.22-11.16-2.74-23.61-6.73-23.61-19.31v-.25c0-12.45,11.88-20.05,26.91-20.05,9.45,0,19.75,2.87,27.77,7.47l-6.87,10.71c-7.3-3.86-15.03-6.23-21.32-6.23-6.73,0-10.59,2.74-10.59,6.48v.25c0,4.86,8.16,6.85,17.03,9.34,11.02,2.99,23.47,7.35,23.47,19.18v.25c0,13.83-12.31,20.68-28.05,20.68-10.73,0-22.61-3.36-32.06-9.84Z"/>
      </g>
      <path class="cls-1" d="M222.06,107.76c-.03-1.09-.08-2.17-.15-3.26-.04-.72-.08-1.44-.15-2.16-.14-1.74-.3-3.45-.52-5.15-.03-.27-.06-.53-.1-.79-.1-.74-.21-1.48-.32-2.23-.14-.89-.28-1.78-.44-2.66-.01-.09-.02-.2-.05-.29-.15-.84-.31-1.68-.48-2.51-.19-.91-.39-1.81-.59-2.7-.21-.9-.43-1.79-.66-2.68-.23-.88-.47-1.77-.72-2.65-.24-.87-.5-1.75-.77-2.6v-.02c-.27-.87-.55-1.73-.85-2.58-.23-.69-.47-1.38-.72-2.06-.09-.28-.2-.56-.3-.85-.27-.73-.55-1.46-.85-2.2-.33-.84-.67-1.67-1.02-2.51-.7-1.66-1.44-3.29-2.23-4.91-.39-.81-.78-1.61-1.2-2.42-.41-.79-.83-1.59-1.25-2.37-.43-.78-.86-1.57-1.31-2.34-.45-.77-.9-1.55-1.37-2.31-1.39-2.29-2.86-4.53-4.41-6.7-.51-.72-1.05-1.44-1.58-2.15-.52-.71-1.07-1.41-1.61-2.11-.02-.02-.03-.04-.05-.06-.51-.65-1.04-1.3-1.56-1.93-1.04-1.27-2.1-2.5-3.2-3.71-.41-.46-.83-.91-1.24-1.35-.15-.18-.3-.35-.47-.5-.43-.46-.86-.92-1.31-1.37-.18-.2-.37-.39-.55-.56-.31-.32-.63-.64-.94-.94-.36-.37-.72-.71-1.09-1.06-.58-.58-1.16-1.12-1.76-1.66-.39-.36-.77-.71-1.17-1.06-.55-.51-1.11-1-1.68-1.47-.49-.44-.98-.86-1.48-1.25-.14-.14-.28-.25-.43-.36-.43-.37-.87-.72-1.31-1.06-.37-.3-.74-.6-1.12-.89-.53-.42-1.08-.84-1.62-1.23-.6-.45-1.2-.9-1.82-1.34-.16-.12-.31-.22-.47-.33-.43-.3-.86-.6-1.29-.9-.37-.25-.73-.5-1.1-.74-.22-.16-.44-.29-.66-.44-.52-.35-1.05-.68-1.57-1.01-2.14-1.37-4.33-2.66-6.57-3.87-.68-.38-1.36-.73-2.04-1.08-.95-.5-1.91-.98-2.88-1.43-1.5-.73-3.02-1.42-4.56-2.08-2.01-.86-4.04-1.65-6.11-2.38-.58-.21-1.15-.41-1.74-.61-.84-.28-1.67-.55-2.52-.83-.08-.02-.16-.05-.24-.07-.81-.25-1.63-.49-2.45-.72-.71-.21-1.43-.41-2.14-.59-.55-.16-1.11-.29-1.67-.42-.24-.07-.48-.14-.73-.19-.5-.13-1.01-.24-1.53-.36-.5-.12-1.01-.22-1.53-.32-.37-.08-.74-.16-1.12-.23-.42-.08-.84-.17-1.25-.24-.47-.09-.94-.18-1.42-.25-.6-.12-1.19-.21-1.79-.29-.18-.04-.36-.06-.53-.08-.61-.1-1.21-.19-1.83-.26-.42-.06-.84-.12-1.25-.17-.47-.06-.95-.12-1.43-.16-.5-.06-1.01-.12-1.52-.16-.06-.01-.12-.02-.18-.02-.19-.02-.39-.04-.58-.05-.64-.06-1.27-.1-1.9-.15-.25-.02-.5-.04-.76-.05-.48-.04-.97-.07-1.45-.09h-.04c-.77-.04-1.54-.07-2.31-.09-.47-.02-.94-.03-1.42-.03-.65-.01-1.3-.02-1.94-.02h-.02c-3.52,0-7.01.17-10.45.49C44.24,5.77,0,53.35,0,111.05c0,.63.01,1.27.02,1.89,0,.53.02,1.07.03,1.59.03.89.06,1.77.13,2.66.03.77.08,1.54.14,2.31.01.04.01.09.01.14.07.89.15,1.77.24,2.65.01.09.02.2.03.29.07.69.15,1.38.23,2.06.03.31.07.63.13.94.09.79.21,1.58.33,2.36.13.85.26,1.68.42,2.53.01.12.03.22.05.33.31,1.79.68,3.56,1.09,5.3.21.89.43,1.78.66,2.67.45,1.78.95,3.52,1.5,5.27.27.87.55,1.73.85,2.59.29.86.6,1.71.9,2.56.31.85.64,1.69.97,2.53.33.85.67,1.67,1.02,2.51.7,1.66,1.44,3.29,2.23,4.91.39.82.78,1.61,1.2,2.42.06.12.13.24.2.37.11.23.23.45.34.68.23.45.47.89.71,1.33.35.64.69,1.27,1.06,1.89.14.24.28.49.42.73h0c.48.83.96,1.63,1.45,2.43.49.81.99,1.61,1.51,2.39.48.74.97,1.47,1.46,2.21.15.2.28.41.43.61.33.49.68.97,1.02,1.45.39.54.77,1.08,1.18,1.61.06.09.13.18.2.26.37.5.74.99,1.12,1.48.32.42.66.84.98,1.24.18.23.36.45.54.67.3.39.62.76.94,1.14.33.42.68.83,1.04,1.23.33.39.68.77,1.02,1.16.09.13.21.24.31.37.12.13.23.26.35.39h.01c.42.48.85.94,1.29,1.41.15.17.3.33.47.5.56.61,1.14,1.2,1.71,1.79l.14.14c.3.31.61.61.91.91.3.3.61.6.92.9l.22.22c.55.52,1.11,1.06,1.67,1.57,3.11,2.88,6.38,5.56,9.8,8.06.55.42,1.13.82,1.69,1.22.06.04.13.08.19.13.74.52,1.5,1.04,2.25,1.54.76.51,1.54,1.01,2.32,1.5.1.07.2.14.3.19.71.45,1.42.89,2.14,1.32.07.04.16.09.23.13.65.39,1.3.76,1.96,1.13.32.2.66.39.99.55.32.19.65.37.97.53.54.3,1.1.6,1.65.88.28.15.56.29.85.43.48.25.97.49,1.46.72.53.26,1.07.51,1.6.76,1.22.58,2.47,1.13,3.71,1.65.76.32,1.52.64,2.29.94.45.18.9.36,1.36.52.73.28,1.48.56,2.23.83.33.13.68.24,1.01.36.29.1.59.21.89.3.47.17.95.32,1.43.47.45.15.9.29,1.36.43.11.04.23.07.36.1.6.19,1.19.37,1.8.53.75.22,1.51.43,2.26.62.42.12.84.22,1.27.32.5.13,1,.25,1.5.37.46.1.93.21,1.39.31,1.66.38,3.34.7,5.03.99.69.13,1.38.23,2.07.33.56.09,1.14.18,1.71.25.13.02.25.03.38.05.35.04.69.09,1.04.14.56.07,1.14.14,1.7.19.38.05.74.08,1.12.12.9.09,1.81.18,2.71.24.7.05,1.4.09,2.1.14.18.01.36.02.53.02.73.04,1.46.07,2.2.09.12,0,.22.01.32.01.29.01.59.01.87.02.73.01,1.45.02,2.19.02h.03c.74,0,1.48-.01,2.23-.02.28-.01.56-.01.85-.02.08,0,.17,0,.24-.01.79-.02,1.59-.05,2.38-.09.87-.04,1.73-.09,2.58-.17,2.32-.17,4.62-.41,6.89-.72.58-.07,1.14-.16,1.71-.25.82-.13,1.63-.25,2.45-.4.2-.03.39-.07.59-.1.67-.13,1.34-.25,2-.39,1.69-.33,3.37-.71,5.03-1.14.4-.09.79-.2,1.19-.3.76-.19,1.52-.4,2.26-.62.67-.19,1.35-.39,2.01-.6.05-.01.1-.02.15-.04.38-.12.74-.23,1.11-.35.78-.25,1.56-.5,2.32-.77.45-.15.9-.3,1.35-.47.72-.25,1.43-.52,2.14-.79.46-.17.91-.35,1.36-.52.76-.3,1.53-.62,2.29-.94.87-.37,1.74-.74,2.59-1.14.48-.21.95-.43,1.42-.66.44-.2.87-.41,1.3-.62.49-.23.98-.47,1.46-.72.28-.14.56-.28.85-.43.55-.28,1.11-.58,1.65-.88.32-.17.65-.35.97-.53.33-.17.67-.36.99-.55.66-.37,1.31-.74,1.96-1.13.08-.04.17-.08.25-.15.6-.35,1.18-.7,1.77-1.07.3-.18.61-.37.9-.56.7-.44,1.39-.89,2.08-1.35.75-.5,1.51-1.01,2.25-1.54.06-.04.13-.08.19-.13.58-.41,1.14-.81,1.69-1.22,3.42-2.5,6.69-5.19,9.8-8.06.56-.51,1.12-1.04,1.67-1.57.61-.58,1.2-1.16,1.79-1.76.39-.39.77-.78,1.15-1.18.23-.23.46-.46.68-.7.43-.45.85-.9,1.27-1.36.26-.28.53-.58.78-.87.37-.41.73-.82,1.09-1.23.18-.18.33-.37.47-.54.5-.58.99-1.15,1.47-1.74.03-.02.05-.05.07-.08.55-.67,1.1-1.35,1.64-2.04.55-.7,1.09-1.41,1.62-2.12.51-.68,1.01-1.36,1.51-2.05.1-.14.2-.27.28-.41.39-.54.77-1.1,1.15-1.65.49-.71.96-1.43,1.43-2.15.38-.59.75-1.18,1.11-1.78.6-.93,1.16-1.88,1.71-2.83.05-.09.12-.2.17-.29.45-.77.88-1.56,1.31-2.34.08-.15.17-.3.25-.46.21-.39.42-.76.62-1.16.06-.13.13-.25.19-.39h.01c.09-.17.18-.35.26-.51.39-.75.76-1.51,1.13-2.27.4-.81.77-1.62,1.14-2.44.38-.83.73-1.65,1.09-2.48.36-.84.69-1.66,1.02-2.51.3-.74.59-1.51.87-2.26.37-.98.71-1.97,1.05-2.96.25-.75.5-1.51.73-2.26.06-.17.11-.35.17-.51.39-1.25.75-2.52,1.1-3.8.33-1.28.66-2.55.96-3.84.42-1.79.78-3.6,1.11-5.42.33-1.82.62-3.66.85-5.51.23-1.85.42-3.72.56-5.59.15-1.86.24-3.74.29-5.63,0-.03.01-.07,0-.1.02-.93.03-1.87.03-2.8,0-1.1-.02-2.21-.04-3.29ZM198.2,142.91c-.25.68-.51,1.36-.77,2.03-.01.05-.02.1-.05.15-.27.68-.55,1.36-.84,2.04-.29.69-.6,1.38-.91,2.07-.31.68-.63,1.36-.95,2.04-.31.68-.65,1.35-1,2.02-1.02,2-2.12,3.95-3.28,5.87-.31.51-.64,1.04-.97,1.55l-1.31,2.01.96,1.77.33.62h-2.96l-.67.93c-.06.09-.14.2-.21.28-.51.68-1.02,1.36-1.55,2.02-.87,1.12-1.77,2.21-2.7,3.28-1.84,2.12-3.76,4.16-5.77,6.11-.3.29-.62.59-.92.88-.68.64-1.37,1.28-2.07,1.88-1.71,1.54-3.48,2.99-5.31,4.38-.01.01-.03.02-.04.03-.16.12-.3.23-.46.36h-.01c-.27.21-.54.41-.83.62-.09.06-.18.14-.27.2-.45.32-.9.66-1.36.97-1,.72-2.03,1.4-3.06,2.07-.51.33-1.04.66-1.56.98s-1.06.64-1.58.95-1.05.62-1.58.91c-.04.02-.08.05-.13.07-.51.29-1.01.58-1.53.84-1.09.59-2.19,1.15-3.3,1.69-.55.27-1.11.54-1.67.79-.38.18-.75.35-1.13.51-.45.21-.9.41-1.35.6-.16.06-.31.14-.46.2-.37.16-.74.3-1.11.45-.37.16-.73.3-1.1.44-.6.24-1.2.47-1.81.69-.71.26-1.42.51-2.14.75-.36.13-.71.24-1.08.36-.36.13-.72.23-1.09.35-.56.18-1.13.35-1.69.51-.28.08-.58.17-.87.25-.61.17-1.22.33-1.84.49-.74.2-1.47.38-2.23.54-.74.18-1.51.35-2.26.49-.65.14-1.3.26-1.96.38-.52.1-1.06.2-1.59.28-.49.08-.97.16-1.46.23-1.46.22-2.94.4-4.42.54-.66.07-1.32.13-1.98.18-.15.01-.3.02-.46.03-.58.05-1.16.08-1.76.1-.15.02-.29.03-.45.03-.62.03-1.23.05-1.86.07-.91.03-1.82.04-2.73.04s-1.88-.01-2.82-.05c-.59-.01-1.16-.03-1.75-.06-.18,0-.37-.01-.55-.03-.53-.02-1.07-.05-1.6-.1-.19,0-.39-.02-.59-.03-.58-.05-1.16-.09-1.74-.16-.89-.08-1.77-.18-2.65-.29-.64-.08-1.28-.17-1.91-.26-.58-.08-1.16-.18-1.74-.28-.1-.01-.21-.02-.31-.05-.4-.06-.79-.13-1.19-.21-.55-.09-1.11-.2-1.65-.31-.08-.02-.18-.03-.27-.06-.73-.15-1.45-.3-2.17-.47-.75-.17-1.48-.36-2.23-.54-.55-.15-1.12-.29-1.67-.45-.42-.12-.84-.23-1.25-.36-.49-.15-.98-.29-1.47-.45-.65-.2-1.3-.41-1.93-.63-.82-.27-1.62-.55-2.43-.85-1.08-.4-2.13-.82-3.19-1.24-.17-.07-.33-.14-.51-.21-.36-.16-.72-.3-1.08-.46-.24-.1-.48-.21-.72-.31-.47-.21-.93-.42-1.39-.64-.56-.25-1.12-.52-1.68-.79-1.11-.54-2.21-1.11-3.29-1.69-.51-.26-1.02-.54-1.53-.84-.04-.02-.08-.05-.13-.07-.53-.29-1.06-.6-1.58-.91s-1.06-.63-1.58-.95c-.52-.32-1.05-.65-1.56-.98-1.56-.99-3.07-2.04-4.56-3.14-.33-.24-.66-.48-.98-.72-.17-.13-.32-.25-.49-.39-1.29-.96-2.54-1.98-3.76-3.03-.41-.33-.82-.69-1.22-1.06-1.15-1-2.28-2.04-3.38-3.12-.44-.43-.88-.86-1.32-1.31-.76-.76-1.51-1.54-2.23-2.33-.38-.4-.74-.79-1.09-1.19-.36-.4-.71-.81-1.07-1.21-.52-.61-1.05-1.22-1.55-1.85-.38-.45-.73-.9-1.09-1.35-.04-.04-.07-.09-.12-.14-.29-.38-.59-.75-.87-1.13-.14-.19-.28-.37-.42-.55-.06-.09-.14-.19-.21-.28-.03-.04-.06-.08-.09-.14-.03-.05-.07-.09-.1-.15-.24-.3-.47-.62-.7-.93h-2.96l.35-.62h.01s.95-1.76.95-1.76c-.85-1.27-1.66-2.55-2.45-3.86-.78-1.31-1.54-2.63-2.27-3.98-.63-1.16-1.22-2.33-1.8-3.52-.01-.04-.03-.07-.05-.12-.27-.58-.54-1.16-.82-1.75-.27-.58-.53-1.15-.77-1.74,0-.01-.01-.01-.01-.02-.03-.07-.05-.14-.08-.21-.22-.51-.44-1.04-.65-1.55-.17-.38-.31-.75-.46-1.14-.05-.14-.1-.28-.16-.42-.02-.06-.05-.14-.07-.2-.16-.42-.32-.85-.48-1.27-.16-.42-.31-.84-.46-1.27h0c-.05-.15-.09-.28-.15-.43-.23-.63-.44-1.27-.64-1.9-.27-.84-.52-1.67-.76-2.51-.21-.67-.39-1.35-.56-2.03-.02-.09-.05-.2-.08-.29-.19-.72-.37-1.45-.53-2.19-.17-.68-.31-1.36-.46-2.04-.18-.85-.35-1.7-.5-2.56-.15-.76-.28-1.54-.4-2.32-.24-1.56-.44-3.14-.61-4.72-.33-3.17-.5-6.37-.5-9.62,0-1.48.03-2.96.12-4.42.02-.73.06-1.46.13-2.2.15-2.19.38-4.35.69-6.49.2-1.43.43-2.85.71-4.26.13-.71.26-1.41.43-2.1.14-.7.29-1.39.47-2.08.15-.7.32-1.39.51-2.07.19-.69.38-1.37.56-2.05.39-1.36.81-2.71,1.27-4.04.56-1.67,1.18-3.31,1.83-4.94.65-1.63,1.36-3.22,2.1-4.8.3-.63.61-1.25.91-1.88.3-.62.62-1.23.95-1.85.31-.62.65-1.22.99-1.83.35-.61.69-1.21,1.04-1.81.26-.45.53-.9.79-1.34.81-1.33,1.65-2.63,2.53-3.92.87-1.29,1.78-2.55,2.72-3.79.31-.42.64-.83.95-1.23.41-.53.84-1.07,1.29-1.6.07-.09.15-.19.23-.29.79-.97,1.62-1.93,2.47-2.86.46-.51.92-1.02,1.4-1.53.46-.5.93-.99,1.42-1.48.47-.5.96-.98,1.46-1.46.49-.49.99-.97,1.5-1.43.5-.48,1.01-.94,1.53-1.39,1.02-.93,2.07-1.83,3.14-2.69.61-.49,1.21-.97,1.82-1.45.53-.42,1.08-.83,1.62-1.23,1.09-.82,2.2-1.6,3.33-2.36h.01c2.25-1.54,4.57-2.96,6.96-4.28.6-.32,1.19-.66,1.8-.97.84-.44,1.69-.88,2.55-1.3,1.71-.84,3.46-1.63,5.24-2.36,1.77-.73,3.57-1.42,5.4-2.04,1.37-.47,2.76-.91,4.15-1.31,1.4-.41,2.81-.77,4.23-1.12.02,0,.04,0,.05-.01.69-.18,1.37-.32,2.07-.47h.03c.69-.16,1.39-.3,2.09-.42.52-.09,1.06-.2,1.58-.28,1.07-.19,2.13-.36,3.21-.5.53-.06,1.08-.14,1.61-.2h.02c.89-.12,1.78-.21,2.68-.28h.02c.83-.08,1.66-.15,2.5-.19.12-.01.23-.02.33-.02.69-.04,1.38-.07,2.08-.09,1.09-.04,2.17-.06,3.27-.06,1.16,0,2.32.02,3.47.07.61.01,1.2.04,1.8.08.18,0,.36.01.53.03.74.04,1.47.09,2.22.17.13,0,.25.02.38.03.84.07,1.66.16,2.5.26h.01c1.44.16,2.86.37,4.29.61.71.1,1.41.23,2.11.38.63.1,1.24.23,1.85.37.3.06.6.13.89.2.41.07.82.17,1.22.27.09.02.18.04.27.06.14.04.28.07.42.1.53.13,1.08.26,1.6.41,1.35.35,2.68.72,3.99,1.14.03.01.06.02.08.03,1.35.41,2.69.87,4,1.35.66.24,1.32.49,1.97.74.66.26,1.31.52,1.94.78.65.26,1.3.54,1.93.84.64.27,1.28.56,1.9.87,1.27.59,2.5,1.2,3.73,1.86.62.31,1.22.65,1.83.99.61.32,1.21.67,1.81,1.02.6.35,1.19.7,1.78,1.08.6.36,1.18.73,1.76,1.11.58.37,1.16.75,1.73,1.14,1.15.78,2.27,1.58,3.38,2.4.15.1.28.21.42.31.48.37.95.72,1.42,1.1,1.83,1.43,3.61,2.94,5.32,4.52.43.39.86.78,1.28,1.18.12.1.22.21.33.32.47.45.94.9,1.4,1.37.45.44.89.89,1.33,1.35.14.14.27.28.41.43.45.47.9.95,1.34,1.44.47.52.93,1.04,1.39,1.57.05.05.09.1.14.16.72.84,1.43,1.67,2.12,2.54.69.86,1.37,1.73,2.03,2.61.98,1.32,1.93,2.66,2.83,4.02.33.49.66.99.98,1.48.46.71.9,1.42,1.34,2.14.33.55.67,1.12.99,1.68.74,1.3,1.45,2.61,2.14,3.94.35.67.68,1.34,1,2.02.32.68.64,1.36.95,2.04.26.58.51,1.15.76,1.74.36.81.69,1.61,1,2.43.27.7.54,1.41.81,2.12.17.44.32.89.48,1.34.4,1.12.76,2.24,1.11,3.38.35,1.13.67,2.28.97,3.43.25.93.47,1.86.69,2.79.19.74.36,1.5.49,2.26.16.75.3,1.51.44,2.27.14.74.26,1.5.38,2.24.01.03.02.06.01.09.13.71.22,1.43.3,2.15.02.07.03.15.03.22.09.74.18,1.48.25,2.23.06.59.12,1.17.17,1.76.07.88.14,1.77.18,2.65.05.89.08,1.78.1,2.68.02.79.03,1.6.03,2.39,0,1.75-.05,3.48-.14,5.21-.09,1.73-.23,3.44-.43,5.13-.05.49-.12.97-.18,1.45-.1.77-.21,1.55-.32,2.31-.13.77-.25,1.54-.39,2.29-.53,3.03-1.22,6-2.05,8.91-.01.04-.01.07-.03.09-.42,1.45-.87,2.9-1.35,4.32-.09.29-.19.58-.3.87h0c-.14.44-.29.86-.45,1.28Z"/>
      <path class="cls-1" d="M204.08,171.51v-.02c-.1-.77-.28-1.51-.55-2.21-.04-.06-.05-.13-.09-.19l-.14-.26s-.03-.04-.04-.08l-.35-.64-.28-.53s0,0,0,0l-7.07-12.94-1.44-2.65h0l-8.13-14.88h0s-1.2-2.19-1.2-2.19h0s-55.59-101.72-55.59-101.72l-8.55-15.65-.28-.51h0s-.5-.93-.5-.93L111.06,0l-6.95,12.73-1.85,3.38-.78,1.43h0s-8.55,15.66-8.55,15.66l-55.58,101.72h0s-1.19,2.17-1.19,2.17h0l-8.14,14.9h0s-1.43,2.64-1.43,2.64l-7.06,12.92v.03s-.15.24-.15.24c0,.02,0,.03-.02.04l-.56,1.02h0s-.09.17-.09.17c-.26.57-.44,1.19-.55,1.82-.05.24-.09.48-.11.71h186.09s0-.04,0-.07ZM45.09,154.62l.29-.52h0s.8-1.48.8-1.48l.02-.02,46.35-84.83,18.49-33.83h0s0,.04,0,.04l64.83,118.63.81,1.49.28.52H45.09Z"/>
      <g>
        <path class="cls-1" d="M398.74,159.15h-6.36c-.06,0-.12,0-.18,0h-.01c-.07,0-.14.01-.21.02,0,0,0,0-.01,0-1.9.21-3.38,1.82-3.38,3.77,0,.59.14,1.16.38,1.66,0,0,0,.02.01.02.07.14.15.28.23.41,0,0,0,0,0,0,.41.61.98,1.09,1.66,1.39.3.13.61.22.94.27h0c.18.03.37.04.56.04.37,0,.72-.06,1.06-.16h5.3c6.73,0,11.28,4.66,11.28,11.28v.11c0,6.62-4.54,11.17-11.28,11.17h-1.77v-9.07c0-.57-.11-1.11-.32-1.6-.14-.35-.33-.66-.55-.95-.01-.02-.03-.04-.04-.05-.42-.53-.96-.95-1.58-1.22-.06-.02-.11-.05-.17-.07-.01,0-.03-.01-.05-.02-.08-.03-.17-.06-.26-.08-.08-.02-.17-.05-.25-.07-.32-.08-.64-.12-.98-.12-.07,0-.13,0-.2,0h-.01c-.08,0-.16.01-.23.02,0,0,0,0-.01,0-2.1.23-3.74,2.01-3.74,4.17v16.5h10.16c11.76,0,19.89-8.18,19.89-18.71v-.1c0-10.53-8.12-18.61-19.89-18.61Z"/>
        <path class="cls-1" d="M619.37,159.15h-6.36c-.06,0-.12,0-.18,0h-.01c-.07,0-.14.01-.21.02,0,0,0,0-.01,0-1.9.21-3.38,1.82-3.38,3.77,0,.59.14,1.16.38,1.66,0,0,0,.02.01.02.07.14.15.28.23.41,0,0,0,0,0,0,.41.61.98,1.09,1.66,1.39.3.13.61.22.94.27h0c.18.03.37.04.56.04.37,0,.72-.06,1.06-.16h5.3c6.73,0,11.28,4.66,11.28,11.28v.11c0,6.62-4.54,11.17-11.28,11.17h-2.17v-9.07c0-.57-.11-1.11-.32-1.6-.14-.35-.33-.66-.55-.95-.01-.02-.03-.04-.04-.05-.42-.53-.96-.95-1.58-1.22-.06-.02-.11-.05-.17-.07-.01,0-.03-.01-.05-.02-.08-.03-.17-.06-.26-.08-.08-.02-.17-.05-.25-.07-.32-.08-.64-.12-.98-.12-.07,0-.13,0-.2,0h-.01c-.08,0-.16.01-.23.02,0,0,0,0-.01,0-2.1.23-3.74,2.01-3.74,4.17v16.5h10.56c11.76,0,19.89-8.18,19.89-18.71v-.1c0-10.53-8.12-18.61-19.89-18.61Z"/>
        <path class="cls-1" d="M523.19,171.58v-.1c0-3.52-1.13-6.47-3.2-8.55-2.46-2.46-6.15-3.8-10.91-3.8h-17.11v37.42h8.23v-11.98h6.47l8.02,11.98h9.62l-9.15-13.37c4.76-1.76,8.02-5.56,8.02-11.6ZM514.86,172.02c0,3.15-2.3,5.29-6.31,5.29h-8.34v-10.75h8.18c4.01,0,6.47,1.82,6.47,5.35v.11Z"/>
        <path class="cls-1" d="M582.53,158.86l-16.04,37.69h8.39l3.42-8.39h15.82l3.42,8.39h8.61l-16.04-37.69h-7.59ZM581.25,180.88l4.97-12.13,4.97,12.13h-9.94Z"/>
        <path class="cls-1" d="M464.3,158.86l-16.04,37.69h8.39l3.42-8.39h15.82l3.42,8.39h8.61l-16.04-37.69h-7.59ZM463.02,180.88l4.97-12.13,4.97,12.13h-9.94Z"/>
        <path class="cls-1" d="M445.42,160.39s-.03-.03-.04-.05c-.41-.53-.96-.96-1.58-1.23-.06-.03-.11-.05-.17-.07,0,0-.01,0-.01,0-.01,0-.03,0-.03-.01-.08-.03-.17-.06-.26-.08-.08-.03-.17-.05-.26-.07-.32-.08-.64-.12-.98-.12-.08,0-.14,0-.2,0h-.01c-.08,0-.16.01-.23.02h-.01c-.37.04-.73.13-1.07.26-1.57.61-2.68,2.13-2.68,3.92v20.1c0,4.32-1.91,6.17-5,6.17-2.61,0-4.69-1.38-6.82-3.72l-5.17,5.75c2.56,3.03,6.39,5.59,12.19,5.59,4.05,0,7.4-1.17,9.7-3.46,2.23-2.24,3.52-5.54,3.52-9.96v-20.47c0-.57-.12-1.11-.32-1.61-.14-.35-.32-.66-.55-.95Z"/>
        <path class="cls-1" d="M561.77,160.39s-.03-.03-.04-.05c-.41-.52-.93-.94-1.54-1.21-.01,0-.03-.01-.04-.02-.06-.03-.11-.05-.17-.07,0,0-.01,0-.01,0-.01,0-.03,0-.03-.01-.08-.03-.17-.06-.26-.08-.08-.03-.17-.05-.26-.07-.32-.08-.64-.12-.98-.12-.08,0-.14,0-.2,0h-.01c-.08,0-.16.01-.23.02h-.01c-.37.04-.73.13-1.07.26-.08.03-.15.06-.23.1-1.08.5-1.91,1.44-2.27,2.59-.12.39-.19.8-.19,1.23s.06.85.19,1.24v16.38c0,5.94-3.05,8.99-8.07,8.99s-8.07-3.16-8.07-9.25v-16.12c.12-.39.19-.8.19-1.23s-.07-.84-.19-1.23c-.04-.13-.09-.26-.14-.38-.14-.35-.32-.66-.55-.95-.01-.01-.03-.03-.04-.05-.41-.52-.93-.94-1.54-1.21-.01,0-.03-.01-.04-.02-.06-.03-.11-.05-.17-.07,0,0-.01,0-.01,0-.01,0-.03,0-.03-.01-.08-.03-.17-.06-.26-.08-.08-.03-.17-.05-.26-.07-.32-.08-.64-.12-.98-.12-.08,0-.14,0-.2,0h-.01c-.08,0-.16.01-.23.02h-.01c-.37.04-.73.13-1.07.26-.08.03-.15.06-.23.1-1.44.66-2.45,2.13-2.45,3.82v17.56c0,11.01,6.15,16.62,16.2,16.62s16.41-5.55,16.41-16.89v-17.3c0-.57-.12-1.11-.32-1.61-.14-.35-.32-.66-.55-.95Z"/>
        <path class="cls-1" d="M378.58,160.75s-.03-.03-.04-.05c-.42-.53-.96-.96-1.58-1.23-.05-.03-.11-.05-.16-.07,0,0-.01,0-.01,0-.02,0-.03,0-.04-.01-.08-.04-.17-.06-.26-.08-.08-.03-.17-.05-.25-.07-.32-.08-.64-.12-.98-.12-.08,0-.14,0-.2,0h-.01c-.08,0-.16.02-.23.02h-.02c-.37.04-.73.13-1.07.26-1.57.61-2.68,2.13-2.68,3.92v33.31h8.42v-33.31c0-.56-.12-1.11-.32-1.61-.14-.35-.32-.66-.55-.95Z"/>
        <path class="cls-1" d="M366.79,161.49c-.13-.3-.29-.59-.5-.86,0-.02-.02-.02-.04-.04-.38-.48-.86-.88-1.43-1.11-.04-.04-.09-.05-.14-.07-.02,0-.04-.02-.04-.02-.09-.02-.16-.05-.23-.07-.09-.02-.16-.04-.23-.07-.29-.05-.59-.11-.89-.11h-31c-.07,0-.13,0-.18.02h-.02c-.07,0-.14,0-.21.02-1.91.2-3.38,1.81-3.38,3.77,0,.59.13,1.14.38,1.66l.02.02c.07.14.14.27.23.41.41.61.98,1.09,1.66,1.4.29.13.61.21.93.27h.02c.18.02.36.04.55.04h11.41v30.09h7.62v-30.09h11.97c.43,0,.84-.07,1.22-.2,1.5-.52,2.58-1.93,2.58-3.6,0-.52-.09-1.02-.29-1.47Z"/>
      </g>
    </g>
  </g>
</svg>